<mxfile host="app.diagrams.net" modified="2023-06-11T01:20:03.619Z" agent="Mozilla/5.0 (Windows NT 10.0; Win64; x64) AppleWebKit/537.36 (KHTML, like Gecko) Chrome/113.0.0.0 Safari/537.36/Aiiffblx" etag="OmuNTHH7VnNFOj75RSiM" version="21.3.8" type="google">
  <diagram name="Page-1" id="2cc2dc42-3aac-f2a9-1cec-7a8b7cbee084">
    <mxGraphModel grid="1" page="1" gridSize="10" guides="1" tooltips="1" connect="1" arrows="1" fold="1" pageScale="1" pageWidth="1100" pageHeight="850" background="none" math="0" shadow="0">
      <root>
        <mxCell id="0" />
        <mxCell id="1" parent="0" />
        <mxCell id="7026571954dc6520-1" value="" style="strokeWidth=1;shadow=0;dashed=0;align=center;html=1;shape=mxgraph.mockup.containers.browserWindow;rSize=0;mainText=,;recursiveResize=0;rounded=0;labelBackgroundColor=none;fontFamily=Verdana;fontSize=12;movable=1;resizable=1;rotatable=1;deletable=1;editable=1;locked=0;connectable=1;" vertex="1" parent="1">
          <mxGeometry x="20" y="15" width="1050" height="820" as="geometry" />
        </mxCell>
        <mxCell id="7026571954dc6520-2" value="&lt;font style=&quot;font-size: 15px;&quot;&gt;BCIT E-Learning&lt;/font&gt;" style="strokeWidth=1;shadow=0;dashed=0;align=center;html=1;shape=mxgraph.mockup.containers.anchor;fontSize=17;align=left;labelBackgroundColor=none;" vertex="1" parent="7026571954dc6520-1">
          <mxGeometry x="60" y="12" width="110" height="26" as="geometry" />
        </mxCell>
        <mxCell id="7026571954dc6520-3" value="localhost:3000" style="strokeWidth=1;shadow=0;dashed=0;align=center;html=1;shape=mxgraph.mockup.containers.anchor;rSize=0;fontSize=17;align=left;labelBackgroundColor=none;" vertex="1" parent="7026571954dc6520-1">
          <mxGeometry x="130" y="60" width="250" height="26" as="geometry" />
        </mxCell>
        <mxCell id="7026571954dc6520-10" value="Log In" style="text;html=1;points=[];align=left;verticalAlign=top;spacingTop=-4;fontSize=15;fontFamily=Verdana;labelBackgroundColor=none;" vertex="1" parent="7026571954dc6520-1">
          <mxGeometry x="855" y="145" width="60" height="30" as="geometry" />
        </mxCell>
        <mxCell id="7026571954dc6520-15" value="" style="verticalLabelPosition=bottom;shadow=0;dashed=0;align=center;html=1;verticalAlign=top;strokeWidth=1;shape=mxgraph.mockup.markup.line;rounded=0;labelBackgroundColor=none;fontFamily=Verdana;fontSize=12;" vertex="1" parent="7026571954dc6520-1">
          <mxGeometry y="90" width="1050" height="240" as="geometry" />
        </mxCell>
        <mxCell id="7026571954dc6520-18" value="Sign In" style="strokeWidth=1;shadow=0;dashed=0;align=center;html=1;shape=mxgraph.mockup.buttons.button;mainText=;buttonStyle=round;fontSize=17;fontStyle=0;fillColor=none;whiteSpace=wrap;rounded=0;labelBackgroundColor=none;" vertex="1" parent="7026571954dc6520-1">
          <mxGeometry x="380" y="455" width="90" height="30" as="geometry" />
        </mxCell>
        <mxCell id="7026571954dc6520-20" value="&lt;font style=&quot;font-size: 30px;&quot;&gt;Sign In&lt;/font&gt;" style="text;html=1;points=[];align=left;verticalAlign=top;spacingTop=-4;fontSize=12;fontFamily=Verdana;whiteSpace=wrap;labelBackgroundColor=none;" vertex="1" parent="7026571954dc6520-1">
          <mxGeometry x="467.5" y="235" width="115" height="45" as="geometry" />
        </mxCell>
        <mxCell id="7026571954dc6520-34" value="&lt;font style=&quot;font-size: 18px;&quot;&gt;BCIT Copyright&amp;nbsp; 2023&lt;/font&gt;" style="text;html=1;points=[];align=left;verticalAlign=top;spacingTop=-4;fontSize=12;fontFamily=Verdana;whiteSpace=wrap;labelBackgroundColor=none;" vertex="1" parent="7026571954dc6520-1">
          <mxGeometry x="420" y="790" width="210" height="30" as="geometry" />
        </mxCell>
        <mxCell id="7026571954dc6520-4" value="&lt;p style=&quot;line-height: 60%; font-size: 29px;&quot;&gt;&lt;img height=&quot;91&quot; width=&quot;100&quot; src=&quot;data:image/png;base64,iVBORw0KGgoAAAANSUhEUgAAAGQAAABbCAYAAACFziAsAAAAAXNSR0IArs4c6QAACM9JREFUeF7tnXtQVUUcx7+AVx4ikEqiRGg1mYbpiI/SfAQ1Umn5yBc91FL/SEWI8G2mBaVSImJqY2pSmiaEY2qaiaKYOjIiyaQiUqghFAmi8oZ2Ma537zn3wL1tdYrfzjDgnt/++J3v5+7rt6vaAXCGu29n9p3K36VAdUUpbuT92Bj3dnC/1x9dh55sjDHZ2KhAWUkayooy0czp9ge/pjIf5TfPwtljINK39YZXl1Hw8otgP/chIDZqbFUzDiQ7eQJ8es1jUNrhYmoYOvReCNe7n8eRrW7oFZQCR/fuOLLKnoBYpayNxhzIyU090fnpGBhcOiAjYRi6j0qCq6cvco5GoWO/z5lnAwGxUV+rm1kCUlp8AG7eY2FX64bmLR4mIFYra2MDS0AKszbAt18SrqRHwLv7MgJio75WN7MI5MJ6+PSJx6ltfvAfl0tArFbWxgb1QAA75oF/1bAve7XvNKnbqLFVze4AabAZAWlQIgkGBESCiDJdEBCZakrwRUAkiCjTBQGRqaYEXwREgogyXRAQmWpK8EVAJIgo0wUBkammBF8ERIKIMl0QEJlqSvBFQCSIKNMFAZGppgRfBESCiDJdEBCZakrwRUAkiCjTBQGRqaYEXwREgogyXRAQmWpK8EVAJIgo04VsIA/63I2PwsdYDLGmphY3SsuRc7UQx878hEPpWSi4VmLzKz3b1w8xISNxX/s2sLfjlzSA2tpa5DOfUfF7EZeQUvdnrRLYsxNiZ4wSTM7k5GHMW58Y61xdHHF8bYTNcdY3fP+zfYjfe8KyH9lA/Dv54OS6WVYFzuVKOpxRJ0BlVXWj2rZr7YbsrYvg7GjQtOcwBoWsQEr6BYt2z/d/BElRU4TnaecuoeekJcY6txZOKP4mulGxaRmFxm7Hii8P6huIaXQ9Jy1F2rlczRd/4B5PZG1ZaJU4g8NXYd8J9Vv+BKQBKT2CIlB8s1TVysHeHpUHV8Duz+HJGiqOT8xAhUoPbHJA+LBRVc0v4N0uXFR7dpneUuHjd9dXIlUf74+ZjkD/Topn12+WIS7xEPj314f3x71tWylsdn2fiSEzVyvqGwvk2p5lqjHVz12mD2sszFthsQmI3f4vD1k7jmRg2JyPhZfhLzHhmUfxyewX1V9ywHTFZOzU3IDS75Yr7Ld8l4bgtzcI9XNfGYzIyUMVtvYqfhsDRKsnViSvgKGZg2DSnPXGxs6HQsN/YlJXA1IfRA+2CEhTWQT4vrAAufnXhFijp41A+JgAoa60vBIuT4ap6pW3IwperdyEZwOmxeDwaXGCJyBm8ql9wgJCY5Gcdl6wvLV/uWJVFbx4I7Z8q/637Pp2vQ+pH70h+NiZ+gOem71WqCMgZkCufBWJ9m3chdqhs9fg69QzxjoHB3tUHYxV9IRmA0NQXXNnfjI1qLs6fjhOaMPnGPegNwmI+Rxiqkjh7qVo1dJFEKnHa0tw6vwlY12Xju2QuWmeYMPHaD5WaxW+d+B7iPrCN6YOA6cTEC0gtWafYq6WU2AoyiuqjMKFjn4Cy6ePFIQ8l1uAh15crAmkbauWKLlVjjI211ha+dCQZSJh9FQ2UY8VJ+riG6XweFpMUyRGTsbwAd0E8b9gq6txZqsrTToWHhIQJoy7qzO+eHsigvp0UcjUbcJ7yMi+ItT/wIYrPzZsmZaF63dh8YY9tjBo2kMWf3s+dtcVNtOqbaTqFQpbmYCYbckKkX9JigLPX5mWyUs3Y93OowRESwFbkovcH0+V9J4SjfO5+aruf2cT/11mE/8LLBmZkHyKgPwdQLjPw6ezETAjlqVZlBlf89USt+cLBb7p/Kulyc0h1gjG815tn5uDX4tuCM2KWB6JzzumZeSCdUg8mG6Ne1XbJgfk66Nn2FnHeqMYPLHo7emBmcFP4tVnH1OIxHuIYZC4vyjY+T48PVwF2/GR8dj0zXECYu2QpZXL4pu2IrZ5M8/9zlydhGWb9xt/1cVti9CxXWvhV4fHJeLDrQcIiEwg3FcYSxh+yBKHpoVv5twGhxurUleHo69fR8FmZcIhhMR8SUBkA3F1dkTJvg8Ubu36TzPWrZ05DlOG9hNskk9lIYAdz2qVzr5e6MB6VuZPeSj4vQRlFZUK8yY3h2gNWVwdfvpXk7JSIZRhUIjxYCv4qV74/K3xgg2/yODFFgBaZTPbfI4L9BdMfEYuwOWCO6l9AmKmIJ/kqw8pgZge8vBFwOXEd4WWfEXGD5y0yvW90Wjpcie5yG0dWBvTvBYBMVOQJwCv7nhPoavp6R4/Qq9JEVPpvMFdLOdVxHJfaqW5wQHlB8QhrbyyCk4BoYI5ATFTb+uiVzE6oEeDn/7fdi1Ba7cWgt3GPccxMSpeFcjKsFGYNmKg8EwtIUlATCSaOmIA4sJGKwQ9+3M+Or/0jlD/OrNdpWLbZsgsFBbfFGzbsqPbq+wI17zcM2I+rvxa1LR7SF7hdXyfmWMUwYVdbnvA2xP3e7exeJ3n8anLkZqRLQjHk5LVKpM/v+AxPmoTtrO8Fv95dGAPfDr3ZQUMni/jV4zMS5PrIZqzrspDDrD9sLmqzd6ZNATzxwdZ67LOvttElta/IKb1eT0B0ZCzjJ0StmQbwiqNK6WX2Rm8t9kZfEOEtuw/ieBFG1XNCIgF9XYf4xfZ1jR4OZrvW3JYKsXXS3kZTs01vzc8fK54L8zUjoAwNfgeoqKyGucuFdTdONy4+5jVF8v4Rbs1b46Fo6GZKuJrJbfwTMRqHDOZv9QM/9dA+AtrnQjyc8OG/npAQ8OP+XN+A/5hdrzbwat13YYv63IB+CrNppuD1v5y2fayby7Kjq/J+SMgOkNOQAiIzhTQWTjUQwiIzhTQWTjUQwiIzhTQWTjUQwiIzhTQWTjUQwiIzhTQWTjUQwiIzhTQWTjUQwiIzhTQWTjUQwiIzhTQWTjUQwiIzhTQWTjUQwiIzhTQWTjUQwiIzhTQWTjUQwiIzhTQWTjUQwiIzhTQWTjUQ/7LQG7HbvlfQNbZu/2Hw9H+3wP+fLE/AC02abzF3tZdAAAAAElFTkSuQmCC&quot;&gt;&lt;br&gt;&lt;/p&gt;" style="text;html=1;points=[];align=left;verticalAlign=top;spacingTop=-4;fontSize=30;fontFamily=Verdana;labelBackgroundColor=none;" vertex="1" parent="7026571954dc6520-1">
          <mxGeometry x="110" y="86" width="340" height="50" as="geometry" />
        </mxCell>
        <mxCell id="zW8ntHKJu_nd5cqJYW5A-1" value="BCIT Email" style="text;html=1;points=[];align=left;verticalAlign=top;spacingTop=-4;fontSize=15;fontFamily=Verdana;labelBackgroundColor=none;" vertex="1" parent="7026571954dc6520-1">
          <mxGeometry x="380" y="295" width="110" height="30" as="geometry" />
        </mxCell>
        <mxCell id="zW8ntHKJu_nd5cqJYW5A-2" value="Password" style="text;html=1;points=[];align=left;verticalAlign=top;spacingTop=-4;fontSize=15;fontFamily=Verdana;labelBackgroundColor=none;" vertex="1" parent="7026571954dc6520-1">
          <mxGeometry x="380" y="365" width="110" height="30" as="geometry" />
        </mxCell>
        <mxCell id="zW8ntHKJu_nd5cqJYW5A-3" value="" style="rounded=1;whiteSpace=wrap;html=1;labelBackgroundColor=none;" vertex="1" parent="7026571954dc6520-1">
          <mxGeometry x="380" y="325" width="320" height="25" as="geometry" />
        </mxCell>
        <mxCell id="zW8ntHKJu_nd5cqJYW5A-4" value="" style="rounded=1;whiteSpace=wrap;html=1;labelBackgroundColor=none;" vertex="1" parent="7026571954dc6520-1">
          <mxGeometry x="380" y="398" width="320" height="25" as="geometry" />
        </mxCell>
        <mxCell id="zW8ntHKJu_nd5cqJYW5A-5" value="" style="strokeWidth=1;shadow=0;dashed=0;align=center;html=1;shape=mxgraph.mockup.containers.browserWindow;rSize=0;mainText=,;recursiveResize=0;rounded=0;labelBackgroundColor=none;fontFamily=Verdana;fontSize=12;movable=1;resizable=1;rotatable=1;deletable=1;editable=1;locked=0;connectable=1;" vertex="1" parent="1">
          <mxGeometry x="1730" y="-23" width="1050" height="858" as="geometry" />
        </mxCell>
        <mxCell id="zW8ntHKJu_nd5cqJYW5A-6" value="&lt;font style=&quot;font-size: 14px;&quot;&gt;BCIT E-Learning&lt;/font&gt;" style="strokeWidth=1;shadow=0;dashed=0;align=center;html=1;shape=mxgraph.mockup.containers.anchor;fontSize=17;align=left;labelBackgroundColor=none;" vertex="1" parent="zW8ntHKJu_nd5cqJYW5A-5">
          <mxGeometry x="60" y="12" width="110" height="26" as="geometry" />
        </mxCell>
        <mxCell id="zW8ntHKJu_nd5cqJYW5A-7" value="localhost:3000/instructor" style="strokeWidth=1;shadow=0;dashed=0;align=center;html=1;shape=mxgraph.mockup.containers.anchor;rSize=0;fontSize=17;align=left;labelBackgroundColor=none;" vertex="1" parent="zW8ntHKJu_nd5cqJYW5A-5">
          <mxGeometry x="130" y="60" width="250" height="26" as="geometry" />
        </mxCell>
        <mxCell id="zW8ntHKJu_nd5cqJYW5A-8" value="InstructorName" style="text;html=1;points=[];align=left;verticalAlign=top;spacingTop=-4;fontSize=15;fontFamily=Verdana;labelBackgroundColor=none;" vertex="1" parent="zW8ntHKJu_nd5cqJYW5A-5">
          <mxGeometry x="855" y="145" width="125" height="30" as="geometry" />
        </mxCell>
        <mxCell id="zW8ntHKJu_nd5cqJYW5A-9" value="" style="verticalLabelPosition=bottom;shadow=0;dashed=0;align=center;html=1;verticalAlign=top;strokeWidth=1;shape=mxgraph.mockup.markup.line;rounded=0;labelBackgroundColor=none;fontFamily=Verdana;fontSize=12;" vertex="1" parent="zW8ntHKJu_nd5cqJYW5A-5">
          <mxGeometry y="90" width="1050" height="240" as="geometry" />
        </mxCell>
        <mxCell id="zW8ntHKJu_nd5cqJYW5A-12" value="&lt;font style=&quot;font-size: 18px;&quot;&gt;BCIT Copyright&amp;nbsp; 2023&lt;/font&gt;" style="text;html=1;points=[];align=left;verticalAlign=top;spacingTop=-4;fontSize=12;fontFamily=Verdana;whiteSpace=wrap;labelBackgroundColor=none;" vertex="1" parent="zW8ntHKJu_nd5cqJYW5A-5">
          <mxGeometry x="420" y="823" width="210" height="30" as="geometry" />
        </mxCell>
        <mxCell id="zW8ntHKJu_nd5cqJYW5A-13" value="&lt;p style=&quot;line-height: 60%; font-size: 29px;&quot;&gt;&lt;img height=&quot;91&quot; width=&quot;100&quot; src=&quot;data:image/png;base64,iVBORw0KGgoAAAANSUhEUgAAAGQAAABbCAYAAACFziAsAAAAAXNSR0IArs4c6QAACM9JREFUeF7tnXtQVUUcx7+AVx4ikEqiRGg1mYbpiI/SfAQ1Umn5yBc91FL/SEWI8G2mBaVSImJqY2pSmiaEY2qaiaKYOjIiyaQiUqghFAmi8oZ2Ma537zn3wL1tdYrfzjDgnt/++J3v5+7rt6vaAXCGu29n9p3K36VAdUUpbuT92Bj3dnC/1x9dh55sjDHZ2KhAWUkayooy0czp9ge/pjIf5TfPwtljINK39YZXl1Hw8otgP/chIDZqbFUzDiQ7eQJ8es1jUNrhYmoYOvReCNe7n8eRrW7oFZQCR/fuOLLKnoBYpayNxhzIyU090fnpGBhcOiAjYRi6j0qCq6cvco5GoWO/z5lnAwGxUV+rm1kCUlp8AG7eY2FX64bmLR4mIFYra2MDS0AKszbAt18SrqRHwLv7MgJio75WN7MI5MJ6+PSJx6ltfvAfl0tArFbWxgb1QAA75oF/1bAve7XvNKnbqLFVze4AabAZAWlQIgkGBESCiDJdEBCZakrwRUAkiCjTBQGRqaYEXwREgogyXRAQmWpK8EVAJIgo0wUBkammBF8ERIKIMl0QEJlqSvBFQCSIKNMFAZGppgRfBESCiDJdEBCZakrwRUAkiCjTBQGRqaYEXwREgogyXRAQmWpK8EVAJIgo04VsIA/63I2PwsdYDLGmphY3SsuRc7UQx878hEPpWSi4VmLzKz3b1w8xISNxX/s2sLfjlzSA2tpa5DOfUfF7EZeQUvdnrRLYsxNiZ4wSTM7k5GHMW58Y61xdHHF8bYTNcdY3fP+zfYjfe8KyH9lA/Dv54OS6WVYFzuVKOpxRJ0BlVXWj2rZr7YbsrYvg7GjQtOcwBoWsQEr6BYt2z/d/BElRU4TnaecuoeekJcY6txZOKP4mulGxaRmFxm7Hii8P6huIaXQ9Jy1F2rlczRd/4B5PZG1ZaJU4g8NXYd8J9Vv+BKQBKT2CIlB8s1TVysHeHpUHV8Duz+HJGiqOT8xAhUoPbHJA+LBRVc0v4N0uXFR7dpneUuHjd9dXIlUf74+ZjkD/Topn12+WIS7xEPj314f3x71tWylsdn2fiSEzVyvqGwvk2p5lqjHVz12mD2sszFthsQmI3f4vD1k7jmRg2JyPhZfhLzHhmUfxyewX1V9ywHTFZOzU3IDS75Yr7Ld8l4bgtzcI9XNfGYzIyUMVtvYqfhsDRKsnViSvgKGZg2DSnPXGxs6HQsN/YlJXA1IfRA+2CEhTWQT4vrAAufnXhFijp41A+JgAoa60vBIuT4ap6pW3IwperdyEZwOmxeDwaXGCJyBm8ql9wgJCY5Gcdl6wvLV/uWJVFbx4I7Z8q/637Pp2vQ+pH70h+NiZ+gOem71WqCMgZkCufBWJ9m3chdqhs9fg69QzxjoHB3tUHYxV9IRmA0NQXXNnfjI1qLs6fjhOaMPnGPegNwmI+Rxiqkjh7qVo1dJFEKnHa0tw6vwlY12Xju2QuWmeYMPHaD5WaxW+d+B7iPrCN6YOA6cTEC0gtWafYq6WU2AoyiuqjMKFjn4Cy6ePFIQ8l1uAh15crAmkbauWKLlVjjI211ha+dCQZSJh9FQ2UY8VJ+riG6XweFpMUyRGTsbwAd0E8b9gq6txZqsrTToWHhIQJoy7qzO+eHsigvp0UcjUbcJ7yMi+ItT/wIYrPzZsmZaF63dh8YY9tjBo2kMWf3s+dtcVNtOqbaTqFQpbmYCYbckKkX9JigLPX5mWyUs3Y93OowRESwFbkovcH0+V9J4SjfO5+aruf2cT/11mE/8LLBmZkHyKgPwdQLjPw6ezETAjlqVZlBlf89USt+cLBb7p/Kulyc0h1gjG815tn5uDX4tuCM2KWB6JzzumZeSCdUg8mG6Ne1XbJgfk66Nn2FnHeqMYPLHo7emBmcFP4tVnH1OIxHuIYZC4vyjY+T48PVwF2/GR8dj0zXECYu2QpZXL4pu2IrZ5M8/9zlydhGWb9xt/1cVti9CxXWvhV4fHJeLDrQcIiEwg3FcYSxh+yBKHpoVv5twGhxurUleHo69fR8FmZcIhhMR8SUBkA3F1dkTJvg8Ubu36TzPWrZ05DlOG9hNskk9lIYAdz2qVzr5e6MB6VuZPeSj4vQRlFZUK8yY3h2gNWVwdfvpXk7JSIZRhUIjxYCv4qV74/K3xgg2/yODFFgBaZTPbfI4L9BdMfEYuwOWCO6l9AmKmIJ/kqw8pgZge8vBFwOXEd4WWfEXGD5y0yvW90Wjpcie5yG0dWBvTvBYBMVOQJwCv7nhPoavp6R4/Qq9JEVPpvMFdLOdVxHJfaqW5wQHlB8QhrbyyCk4BoYI5ATFTb+uiVzE6oEeDn/7fdi1Ba7cWgt3GPccxMSpeFcjKsFGYNmKg8EwtIUlATCSaOmIA4sJGKwQ9+3M+Or/0jlD/OrNdpWLbZsgsFBbfFGzbsqPbq+wI17zcM2I+rvxa1LR7SF7hdXyfmWMUwYVdbnvA2xP3e7exeJ3n8anLkZqRLQjHk5LVKpM/v+AxPmoTtrO8Fv95dGAPfDr3ZQUMni/jV4zMS5PrIZqzrspDDrD9sLmqzd6ZNATzxwdZ67LOvttElta/IKb1eT0B0ZCzjJ0StmQbwiqNK6WX2Rm8t9kZfEOEtuw/ieBFG1XNCIgF9XYf4xfZ1jR4OZrvW3JYKsXXS3kZTs01vzc8fK54L8zUjoAwNfgeoqKyGucuFdTdONy4+5jVF8v4Rbs1b46Fo6GZKuJrJbfwTMRqHDOZv9QM/9dA+AtrnQjyc8OG/npAQ8OP+XN+A/5hdrzbwat13YYv63IB+CrNppuD1v5y2fayby7Kjq/J+SMgOkNOQAiIzhTQWTjUQwiIzhTQWTjUQwiIzhTQWTjUQwiIzhTQWTjUQwiIzhTQWTjUQwiIzhTQWTjUQwiIzhTQWTjUQwiIzhTQWTjUQwiIzhTQWTjUQwiIzhTQWTjUQwiIzhTQWTjUQwiIzhTQWTjUQwiIzhTQWTjUQ/7LQG7HbvlfQNbZu/2Hw9H+3wP+fLE/AC02abzF3tZdAAAAAElFTkSuQmCC&quot;&gt;&lt;br&gt;&lt;/p&gt;" style="text;html=1;points=[];align=left;verticalAlign=top;spacingTop=-4;fontSize=30;fontFamily=Verdana;labelBackgroundColor=none;" vertex="1" parent="zW8ntHKJu_nd5cqJYW5A-5">
          <mxGeometry x="110" y="86" width="340" height="50" as="geometry" />
        </mxCell>
        <mxCell id="zW8ntHKJu_nd5cqJYW5A-16" value="&lt;b style=&quot;font-size: 20px;&quot;&gt;Name: StudentName&lt;br&gt;ID: StudentID&lt;br&gt;Submitted Assignments:&lt;/b&gt;&lt;br&gt;&lt;br&gt;&lt;font style=&quot;font-size: 17px;&quot;&gt;Assignment 1: Submitted&lt;br&gt;Assignment 2: Submitted&lt;br&gt;Assignment 3: Submitted&lt;/font&gt;" style="rounded=1;whiteSpace=wrap;html=1;labelBackgroundColor=none;align=left;" vertex="1" parent="zW8ntHKJu_nd5cqJYW5A-5">
          <mxGeometry x="110" y="280" width="280" height="270" as="geometry" />
        </mxCell>
        <mxCell id="zW8ntHKJu_nd5cqJYW5A-18" value="Students" style="text;html=1;points=[];align=left;verticalAlign=top;spacingTop=-4;fontSize=15;fontFamily=Verdana;labelBackgroundColor=none;" vertex="1" parent="zW8ntHKJu_nd5cqJYW5A-5">
          <mxGeometry x="760" y="145" width="70" height="30" as="geometry" />
        </mxCell>
        <mxCell id="zW8ntHKJu_nd5cqJYW5A-19" value="Add a new student" style="strokeWidth=1;shadow=0;dashed=0;align=center;html=1;shape=mxgraph.mockup.buttons.button;mainText=;buttonStyle=round;fontSize=17;fontStyle=0;fillColor=none;whiteSpace=wrap;rounded=0;labelBackgroundColor=none;" vertex="1" parent="zW8ntHKJu_nd5cqJYW5A-5">
          <mxGeometry x="110" y="235" width="170" height="30" as="geometry" />
        </mxCell>
        <mxCell id="zW8ntHKJu_nd5cqJYW5A-20" value="&lt;b style=&quot;font-size: 20px;&quot;&gt;Name: StudentName&lt;br&gt;ID: StudentID&lt;br&gt;Submitted Assignments:&lt;/b&gt;&lt;br&gt;&lt;br&gt;&lt;font style=&quot;font-size: 17px;&quot;&gt;Assignment 1: Submitted&lt;br&gt;Assignment 2: Submitted&lt;br&gt;Assignment 3: Submitted&lt;/font&gt;" style="rounded=1;whiteSpace=wrap;html=1;labelBackgroundColor=none;align=left;" vertex="1" parent="zW8ntHKJu_nd5cqJYW5A-5">
          <mxGeometry x="420" y="280" width="280" height="270" as="geometry" />
        </mxCell>
        <mxCell id="zW8ntHKJu_nd5cqJYW5A-21" value="&lt;b style=&quot;font-size: 20px;&quot;&gt;Name: StudentName&lt;br&gt;ID: StudentID&lt;br&gt;Submitted Assignments:&lt;/b&gt;&lt;br&gt;&lt;br&gt;&lt;font style=&quot;font-size: 17px;&quot;&gt;Assignment 1: Submitted&lt;br&gt;Assignment 2: Submitted&lt;br&gt;Assignment 3: Submitted&lt;/font&gt;" style="rounded=1;whiteSpace=wrap;html=1;labelBackgroundColor=none;align=left;" vertex="1" parent="zW8ntHKJu_nd5cqJYW5A-5">
          <mxGeometry x="720" y="280" width="280" height="270" as="geometry" />
        </mxCell>
        <mxCell id="zW8ntHKJu_nd5cqJYW5A-10" value="Start Marking" style="strokeWidth=1;shadow=0;dashed=0;align=center;html=1;shape=mxgraph.mockup.buttons.button;mainText=;buttonStyle=round;fontSize=17;fontStyle=0;fillColor=none;whiteSpace=wrap;rounded=0;labelBackgroundColor=none;" vertex="1" parent="zW8ntHKJu_nd5cqJYW5A-5">
          <mxGeometry x="170" y="500" width="130" height="40" as="geometry" />
        </mxCell>
        <mxCell id="zW8ntHKJu_nd5cqJYW5A-22" value="Start Marking" style="strokeWidth=1;shadow=0;dashed=0;align=center;html=1;shape=mxgraph.mockup.buttons.button;mainText=;buttonStyle=round;fontSize=17;fontStyle=0;fillColor=none;whiteSpace=wrap;rounded=0;labelBackgroundColor=none;" vertex="1" parent="zW8ntHKJu_nd5cqJYW5A-5">
          <mxGeometry x="495" y="500" width="130" height="40" as="geometry" />
        </mxCell>
        <mxCell id="zW8ntHKJu_nd5cqJYW5A-23" value="Start Marking" style="strokeWidth=1;shadow=0;dashed=0;align=center;html=1;shape=mxgraph.mockup.buttons.button;mainText=;buttonStyle=round;fontSize=17;fontStyle=0;fillColor=none;whiteSpace=wrap;rounded=0;labelBackgroundColor=none;" vertex="1" parent="zW8ntHKJu_nd5cqJYW5A-5">
          <mxGeometry x="795" y="500" width="130" height="40" as="geometry" />
        </mxCell>
        <mxCell id="zW8ntHKJu_nd5cqJYW5A-24" value="" style="strokeWidth=1;shadow=0;dashed=0;align=center;html=1;shape=mxgraph.mockup.containers.browserWindow;rSize=0;mainText=,;recursiveResize=0;rounded=0;labelBackgroundColor=none;fontFamily=Verdana;fontSize=12;movable=1;resizable=1;rotatable=1;deletable=1;editable=1;locked=0;connectable=1;" vertex="1" parent="1">
          <mxGeometry x="3550" y="-10" width="1050" height="1870" as="geometry" />
        </mxCell>
        <mxCell id="zW8ntHKJu_nd5cqJYW5A-25" value="&lt;font style=&quot;font-size: 14px;&quot;&gt;BCIT E-Learning&lt;/font&gt;" style="strokeWidth=1;shadow=0;dashed=0;align=center;html=1;shape=mxgraph.mockup.containers.anchor;fontSize=17;align=left;labelBackgroundColor=none;" vertex="1" parent="zW8ntHKJu_nd5cqJYW5A-24">
          <mxGeometry x="60" y="12" width="100" height="26" as="geometry" />
        </mxCell>
        <mxCell id="zW8ntHKJu_nd5cqJYW5A-26" value="localhost:3000/instructor/assignments/:studentId" style="strokeWidth=1;shadow=0;dashed=0;align=center;html=1;shape=mxgraph.mockup.containers.anchor;rSize=0;fontSize=17;align=left;labelBackgroundColor=none;" vertex="1" parent="zW8ntHKJu_nd5cqJYW5A-24">
          <mxGeometry x="130" y="60" width="410" height="26" as="geometry" />
        </mxCell>
        <mxCell id="zW8ntHKJu_nd5cqJYW5A-27" value="InstructorName" style="text;html=1;points=[];align=left;verticalAlign=top;spacingTop=-4;fontSize=15;fontFamily=Verdana;labelBackgroundColor=none;" vertex="1" parent="zW8ntHKJu_nd5cqJYW5A-24">
          <mxGeometry x="855" y="145" width="125" height="30" as="geometry" />
        </mxCell>
        <mxCell id="zW8ntHKJu_nd5cqJYW5A-28" value="" style="verticalLabelPosition=bottom;shadow=0;dashed=0;align=center;html=1;verticalAlign=top;strokeWidth=1;shape=mxgraph.mockup.markup.line;rounded=0;labelBackgroundColor=none;fontFamily=Verdana;fontSize=12;" vertex="1" parent="zW8ntHKJu_nd5cqJYW5A-24">
          <mxGeometry y="90" width="1050" height="240" as="geometry" />
        </mxCell>
        <mxCell id="zW8ntHKJu_nd5cqJYW5A-30" value="&lt;p style=&quot;line-height: 60%; font-size: 29px;&quot;&gt;&lt;img height=&quot;91&quot; width=&quot;100&quot; src=&quot;data:image/png;base64,iVBORw0KGgoAAAANSUhEUgAAAGQAAABbCAYAAACFziAsAAAAAXNSR0IArs4c6QAACM9JREFUeF7tnXtQVUUcx7+AVx4ikEqiRGg1mYbpiI/SfAQ1Umn5yBc91FL/SEWI8G2mBaVSImJqY2pSmiaEY2qaiaKYOjIiyaQiUqghFAmi8oZ2Ma537zn3wL1tdYrfzjDgnt/++J3v5+7rt6vaAXCGu29n9p3K36VAdUUpbuT92Bj3dnC/1x9dh55sjDHZ2KhAWUkayooy0czp9ge/pjIf5TfPwtljINK39YZXl1Hw8otgP/chIDZqbFUzDiQ7eQJ8es1jUNrhYmoYOvReCNe7n8eRrW7oFZQCR/fuOLLKnoBYpayNxhzIyU090fnpGBhcOiAjYRi6j0qCq6cvco5GoWO/z5lnAwGxUV+rm1kCUlp8AG7eY2FX64bmLR4mIFYra2MDS0AKszbAt18SrqRHwLv7MgJio75WN7MI5MJ6+PSJx6ltfvAfl0tArFbWxgb1QAA75oF/1bAve7XvNKnbqLFVze4AabAZAWlQIgkGBESCiDJdEBCZakrwRUAkiCjTBQGRqaYEXwREgogyXRAQmWpK8EVAJIgo0wUBkammBF8ERIKIMl0QEJlqSvBFQCSIKNMFAZGppgRfBESCiDJdEBCZakrwRUAkiCjTBQGRqaYEXwREgogyXRAQmWpK8EVAJIgo04VsIA/63I2PwsdYDLGmphY3SsuRc7UQx878hEPpWSi4VmLzKz3b1w8xISNxX/s2sLfjlzSA2tpa5DOfUfF7EZeQUvdnrRLYsxNiZ4wSTM7k5GHMW58Y61xdHHF8bYTNcdY3fP+zfYjfe8KyH9lA/Dv54OS6WVYFzuVKOpxRJ0BlVXWj2rZr7YbsrYvg7GjQtOcwBoWsQEr6BYt2z/d/BElRU4TnaecuoeekJcY6txZOKP4mulGxaRmFxm7Hii8P6huIaXQ9Jy1F2rlczRd/4B5PZG1ZaJU4g8NXYd8J9Vv+BKQBKT2CIlB8s1TVysHeHpUHV8Duz+HJGiqOT8xAhUoPbHJA+LBRVc0v4N0uXFR7dpneUuHjd9dXIlUf74+ZjkD/Topn12+WIS7xEPj314f3x71tWylsdn2fiSEzVyvqGwvk2p5lqjHVz12mD2sszFthsQmI3f4vD1k7jmRg2JyPhZfhLzHhmUfxyewX1V9ywHTFZOzU3IDS75Yr7Ld8l4bgtzcI9XNfGYzIyUMVtvYqfhsDRKsnViSvgKGZg2DSnPXGxs6HQsN/YlJXA1IfRA+2CEhTWQT4vrAAufnXhFijp41A+JgAoa60vBIuT4ap6pW3IwperdyEZwOmxeDwaXGCJyBm8ql9wgJCY5Gcdl6wvLV/uWJVFbx4I7Z8q/637Pp2vQ+pH70h+NiZ+gOem71WqCMgZkCufBWJ9m3chdqhs9fg69QzxjoHB3tUHYxV9IRmA0NQXXNnfjI1qLs6fjhOaMPnGPegNwmI+Rxiqkjh7qVo1dJFEKnHa0tw6vwlY12Xju2QuWmeYMPHaD5WaxW+d+B7iPrCN6YOA6cTEC0gtWafYq6WU2AoyiuqjMKFjn4Cy6ePFIQ8l1uAh15crAmkbauWKLlVjjI211ha+dCQZSJh9FQ2UY8VJ+riG6XweFpMUyRGTsbwAd0E8b9gq6txZqsrTToWHhIQJoy7qzO+eHsigvp0UcjUbcJ7yMi+ItT/wIYrPzZsmZaF63dh8YY9tjBo2kMWf3s+dtcVNtOqbaTqFQpbmYCYbckKkX9JigLPX5mWyUs3Y93OowRESwFbkovcH0+V9J4SjfO5+aruf2cT/11mE/8LLBmZkHyKgPwdQLjPw6ezETAjlqVZlBlf89USt+cLBb7p/Kulyc0h1gjG815tn5uDX4tuCM2KWB6JzzumZeSCdUg8mG6Ne1XbJgfk66Nn2FnHeqMYPLHo7emBmcFP4tVnH1OIxHuIYZC4vyjY+T48PVwF2/GR8dj0zXECYu2QpZXL4pu2IrZ5M8/9zlydhGWb9xt/1cVti9CxXWvhV4fHJeLDrQcIiEwg3FcYSxh+yBKHpoVv5twGhxurUleHo69fR8FmZcIhhMR8SUBkA3F1dkTJvg8Ubu36TzPWrZ05DlOG9hNskk9lIYAdz2qVzr5e6MB6VuZPeSj4vQRlFZUK8yY3h2gNWVwdfvpXk7JSIZRhUIjxYCv4qV74/K3xgg2/yODFFgBaZTPbfI4L9BdMfEYuwOWCO6l9AmKmIJ/kqw8pgZge8vBFwOXEd4WWfEXGD5y0yvW90Wjpcie5yG0dWBvTvBYBMVOQJwCv7nhPoavp6R4/Qq9JEVPpvMFdLOdVxHJfaqW5wQHlB8QhrbyyCk4BoYI5ATFTb+uiVzE6oEeDn/7fdi1Ba7cWgt3GPccxMSpeFcjKsFGYNmKg8EwtIUlATCSaOmIA4sJGKwQ9+3M+Or/0jlD/OrNdpWLbZsgsFBbfFGzbsqPbq+wI17zcM2I+rvxa1LR7SF7hdXyfmWMUwYVdbnvA2xP3e7exeJ3n8anLkZqRLQjHk5LVKpM/v+AxPmoTtrO8Fv95dGAPfDr3ZQUMni/jV4zMS5PrIZqzrspDDrD9sLmqzd6ZNATzxwdZ67LOvttElta/IKb1eT0B0ZCzjJ0StmQbwiqNK6WX2Rm8t9kZfEOEtuw/ieBFG1XNCIgF9XYf4xfZ1jR4OZrvW3JYKsXXS3kZTs01vzc8fK54L8zUjoAwNfgeoqKyGucuFdTdONy4+5jVF8v4Rbs1b46Fo6GZKuJrJbfwTMRqHDOZv9QM/9dA+AtrnQjyc8OG/npAQ8OP+XN+A/5hdrzbwat13YYv63IB+CrNppuD1v5y2fayby7Kjq/J+SMgOkNOQAiIzhTQWTjUQwiIzhTQWTjUQwiIzhTQWTjUQwiIzhTQWTjUQwiIzhTQWTjUQwiIzhTQWTjUQwiIzhTQWTjUQwiIzhTQWTjUQwiIzhTQWTjUQwiIzhTQWTjUQwiIzhTQWTjUQwiIzhTQWTjUQwiIzhTQWTjUQ/7LQG7HbvlfQNbZu/2Hw9H+3wP+fLE/AC02abzF3tZdAAAAAElFTkSuQmCC&quot;&gt;&lt;br&gt;&lt;/p&gt;" style="text;html=1;points=[];align=left;verticalAlign=top;spacingTop=-4;fontSize=30;fontFamily=Verdana;labelBackgroundColor=none;" vertex="1" parent="zW8ntHKJu_nd5cqJYW5A-24">
          <mxGeometry x="110" y="86" width="340" height="50" as="geometry" />
        </mxCell>
        <mxCell id="zW8ntHKJu_nd5cqJYW5A-32" value="Students" style="text;html=1;points=[];align=left;verticalAlign=top;spacingTop=-4;fontSize=15;fontFamily=Verdana;labelBackgroundColor=none;" vertex="1" parent="zW8ntHKJu_nd5cqJYW5A-24">
          <mxGeometry x="760" y="145" width="70" height="30" as="geometry" />
        </mxCell>
        <mxCell id="zW8ntHKJu_nd5cqJYW5A-39" value="&lt;div style=&quot;box-sizing: border-box; margin-top: 0px; margin-bottom: var(--bs-card-title-spacer-y); line-height: 1.2; color: rgb(33, 37, 41); font-size: 1.25rem; font-family: system-ui, -apple-system, &amp;quot;Segoe UI&amp;quot;, Roboto, &amp;quot;Helvetica Neue&amp;quot;, &amp;quot;Noto Sans&amp;quot;, &amp;quot;Liberation Sans&amp;quot;, Arial, sans-serif, &amp;quot;Apple Color Emoji&amp;quot;, &amp;quot;Segoe UI Emoji&amp;quot;, &amp;quot;Segoe UI Symbol&amp;quot;, &amp;quot;Noto Color Emoji&amp;quot;; background-color: rgb(255, 255, 255);&quot; class=&quot;card-title h5&quot;&gt;Assignment 1&lt;/div&gt;&lt;div style=&quot;box-sizing: border-box; font-size: 16px; padding: 1.2rem 0px; margin-top: calc(-0.5 * var(--bs-card-title-spacer-y)); margin-bottom: 0px; line-height: 1.2; color: rgb(33, 37, 41); font-family: system-ui, -apple-system, &amp;quot;Segoe UI&amp;quot;, Roboto, &amp;quot;Helvetica Neue&amp;quot;, &amp;quot;Noto Sans&amp;quot;, &amp;quot;Liberation Sans&amp;quot;, Arial, sans-serif, &amp;quot;Apple Color Emoji&amp;quot;, &amp;quot;Segoe UI Emoji&amp;quot;, &amp;quot;Segoe UI Symbol&amp;quot;, &amp;quot;Noto Color Emoji&amp;quot;; background-color: rgb(255, 255, 255);&quot; class=&quot;description card-subtitle h6&quot;&gt;When was BCIT&#39;s 50th anniversary celebration?&lt;/div&gt;&lt;p style=&quot;box-sizing: border-box; margin-top: 0px; margin-bottom: 1rem; font-size: 1.2rem; color: rgb(33, 37, 41); font-family: system-ui, -apple-system, &amp;quot;Segoe UI&amp;quot;, Roboto, &amp;quot;Helvetica Neue&amp;quot;, &amp;quot;Noto Sans&amp;quot;, &amp;quot;Liberation Sans&amp;quot;, Arial, sans-serif, &amp;quot;Apple Color Emoji&amp;quot;, &amp;quot;Segoe UI Emoji&amp;quot;, &amp;quot;Segoe UI Symbol&amp;quot;, &amp;quot;Noto Color Emoji&amp;quot;; background-color: rgb(255, 255, 255);&quot; class=&quot;studentAnswer card-text&quot;&gt;Student&#39;s answer:&lt;/p&gt;&lt;p style=&quot;box-sizing: border-box; margin-top: 0px; margin-bottom: 1rem; font-size: 1.2rem; color: rgb(33, 37, 41); font-family: system-ui, -apple-system, &amp;quot;Segoe UI&amp;quot;, Roboto, &amp;quot;Helvetica Neue&amp;quot;, &amp;quot;Noto Sans&amp;quot;, &amp;quot;Liberation Sans&amp;quot;, Arial, sans-serif, &amp;quot;Apple Color Emoji&amp;quot;, &amp;quot;Segoe UI Emoji&amp;quot;, &amp;quot;Segoe UI Symbol&amp;quot;, &amp;quot;Noto Color Emoji&amp;quot;; background-color: rgb(255, 255, 255);&quot; class=&quot;studentAnswer card-text&quot;&gt;&lt;br&gt;&lt;/p&gt;&lt;p style=&quot;box-sizing: border-box; margin-top: 0px; margin-bottom: 1rem; font-size: 1.2rem; color: rgb(33, 37, 41); font-family: system-ui, -apple-system, &amp;quot;Segoe UI&amp;quot;, Roboto, &amp;quot;Helvetica Neue&amp;quot;, &amp;quot;Noto Sans&amp;quot;, &amp;quot;Liberation Sans&amp;quot;, Arial, sans-serif, &amp;quot;Apple Color Emoji&amp;quot;, &amp;quot;Segoe UI Emoji&amp;quot;, &amp;quot;Segoe UI Symbol&amp;quot;, &amp;quot;Noto Color Emoji&amp;quot;; background-color: rgb(255, 255, 255);&quot; class=&quot;studentAnswer card-text&quot;&gt;Score&lt;/p&gt;&lt;p style=&quot;box-sizing: border-box; margin-top: 0px; margin-bottom: 1rem; font-size: 1.2rem; color: rgb(33, 37, 41); font-family: system-ui, -apple-system, &amp;quot;Segoe UI&amp;quot;, Roboto, &amp;quot;Helvetica Neue&amp;quot;, &amp;quot;Noto Sans&amp;quot;, &amp;quot;Liberation Sans&amp;quot;, Arial, sans-serif, &amp;quot;Apple Color Emoji&amp;quot;, &amp;quot;Segoe UI Emoji&amp;quot;, &amp;quot;Segoe UI Symbol&amp;quot;, &amp;quot;Noto Color Emoji&amp;quot;; background-color: rgb(255, 255, 255);&quot; class=&quot;studentAnswer card-text&quot;&gt;&lt;br&gt;&lt;/p&gt;&lt;p style=&quot;box-sizing: border-box; margin-top: 0px; margin-bottom: 1rem; font-size: 1.2rem; color: rgb(33, 37, 41); font-family: system-ui, -apple-system, &amp;quot;Segoe UI&amp;quot;, Roboto, &amp;quot;Helvetica Neue&amp;quot;, &amp;quot;Noto Sans&amp;quot;, &amp;quot;Liberation Sans&amp;quot;, Arial, sans-serif, &amp;quot;Apple Color Emoji&amp;quot;, &amp;quot;Segoe UI Emoji&amp;quot;, &amp;quot;Segoe UI Symbol&amp;quot;, &amp;quot;Noto Color Emoji&amp;quot;; background-color: rgb(255, 255, 255);&quot; class=&quot;studentAnswer card-text&quot;&gt;&lt;br&gt;&lt;/p&gt;&lt;p style=&quot;box-sizing: border-box; margin-top: 0px; margin-bottom: 1rem; font-size: 1.2rem; color: rgb(33, 37, 41); font-family: system-ui, -apple-system, &amp;quot;Segoe UI&amp;quot;, Roboto, &amp;quot;Helvetica Neue&amp;quot;, &amp;quot;Noto Sans&amp;quot;, &amp;quot;Liberation Sans&amp;quot;, Arial, sans-serif, &amp;quot;Apple Color Emoji&amp;quot;, &amp;quot;Segoe UI Emoji&amp;quot;, &amp;quot;Segoe UI Symbol&amp;quot;, &amp;quot;Noto Color Emoji&amp;quot;; background-color: rgb(255, 255, 255);&quot; class=&quot;studentAnswer card-text&quot;&gt;**ONLY non-negative numerical value in the range of 0-100**&lt;br&gt;&lt;/p&gt;&lt;p style=&quot;box-sizing: border-box; margin-top: 0px; margin-bottom: 1rem; font-size: 1.2rem; color: rgb(33, 37, 41); font-family: system-ui, -apple-system, &amp;quot;Segoe UI&amp;quot;, Roboto, &amp;quot;Helvetica Neue&amp;quot;, &amp;quot;Noto Sans&amp;quot;, &amp;quot;Liberation Sans&amp;quot;, Arial, sans-serif, &amp;quot;Apple Color Emoji&amp;quot;, &amp;quot;Segoe UI Emoji&amp;quot;, &amp;quot;Segoe UI Symbol&amp;quot;, &amp;quot;Noto Color Emoji&amp;quot;; background-color: rgb(255, 255, 255);&quot; class=&quot;studentAnswer card-text&quot;&gt;&lt;br&gt;&lt;/p&gt;" style="whiteSpace=wrap;html=1;aspect=fixed;align=left;movable=1;resizable=1;rotatable=1;deletable=1;editable=1;locked=0;connectable=1;" vertex="1" parent="zW8ntHKJu_nd5cqJYW5A-24">
          <mxGeometry x="350" y="230" width="460" height="460" as="geometry" />
        </mxCell>
        <mxCell id="zW8ntHKJu_nd5cqJYW5A-40" value="&lt;font style=&quot;font-size: 20px;&quot;&gt;2017&lt;/font&gt;" style="rounded=0;whiteSpace=wrap;html=1;align=left;" vertex="1" parent="zW8ntHKJu_nd5cqJYW5A-24">
          <mxGeometry x="360" y="390" width="210" height="35" as="geometry" />
        </mxCell>
        <mxCell id="zW8ntHKJu_nd5cqJYW5A-38" value="Confirm" style="strokeWidth=1;shadow=0;dashed=0;align=center;html=1;shape=mxgraph.mockup.buttons.button;mainText=;buttonStyle=round;fontSize=17;fontStyle=0;fillColor=none;whiteSpace=wrap;rounded=0;labelBackgroundColor=none;" vertex="1" parent="zW8ntHKJu_nd5cqJYW5A-24">
          <mxGeometry x="370" y="630" width="130" height="40" as="geometry" />
        </mxCell>
        <mxCell id="zW8ntHKJu_nd5cqJYW5A-41" value="&lt;font style=&quot;font-size: 20px;&quot;&gt;0&lt;/font&gt;" style="rounded=0;whiteSpace=wrap;html=1;align=left;" vertex="1" parent="zW8ntHKJu_nd5cqJYW5A-24">
          <mxGeometry x="360" y="460" width="210" height="35" as="geometry" />
        </mxCell>
        <mxCell id="zW8ntHKJu_nd5cqJYW5A-45" value="&lt;font style=&quot;font-size: 18px;&quot;&gt;BCIT Copyright&amp;nbsp; 2023&lt;/font&gt;" style="text;html=1;points=[];align=left;verticalAlign=top;spacingTop=-4;fontSize=12;fontFamily=Verdana;whiteSpace=wrap;labelBackgroundColor=none;" vertex="1" parent="zW8ntHKJu_nd5cqJYW5A-24">
          <mxGeometry x="475" y="1840" width="210" height="30" as="geometry" />
        </mxCell>
        <mxCell id="zW8ntHKJu_nd5cqJYW5A-43" value="&lt;div style=&quot;box-sizing: border-box; margin-top: 0px; margin-bottom: var(--bs-card-title-spacer-y); line-height: 1.2; color: rgb(33, 37, 41); font-size: 1.25rem; font-family: system-ui, -apple-system, &amp;quot;Segoe UI&amp;quot;, Roboto, &amp;quot;Helvetica Neue&amp;quot;, &amp;quot;Noto Sans&amp;quot;, &amp;quot;Liberation Sans&amp;quot;, Arial, sans-serif, &amp;quot;Apple Color Emoji&amp;quot;, &amp;quot;Segoe UI Emoji&amp;quot;, &amp;quot;Segoe UI Symbol&amp;quot;, &amp;quot;Noto Color Emoji&amp;quot;; background-color: rgb(255, 255, 255);&quot; class=&quot;card-title h5&quot;&gt;Assignment 2&lt;/div&gt;&lt;div style=&quot;box-sizing: border-box; font-size: 16px; padding: 1.2rem 0px; margin-top: calc(-0.5 * var(--bs-card-title-spacer-y)); margin-bottom: 0px; line-height: 1.2; color: rgb(33, 37, 41); font-family: system-ui, -apple-system, &amp;quot;Segoe UI&amp;quot;, Roboto, &amp;quot;Helvetica Neue&amp;quot;, &amp;quot;Noto Sans&amp;quot;, &amp;quot;Liberation Sans&amp;quot;, Arial, sans-serif, &amp;quot;Apple Color Emoji&amp;quot;, &amp;quot;Segoe UI Emoji&amp;quot;, &amp;quot;Segoe UI Symbol&amp;quot;, &amp;quot;Noto Color Emoji&amp;quot;; background-color: rgb(255, 255, 255);&quot; class=&quot;description card-subtitle h6&quot;&gt;Which of the following services does the LTC provide? Select all that apply.&lt;br&gt;&lt;/div&gt;&lt;p style=&quot;box-sizing: border-box; margin-top: 0px; margin-bottom: 1rem; font-size: 1.2rem; color: rgb(33, 37, 41); font-family: system-ui, -apple-system, &amp;quot;Segoe UI&amp;quot;, Roboto, &amp;quot;Helvetica Neue&amp;quot;, &amp;quot;Noto Sans&amp;quot;, &amp;quot;Liberation Sans&amp;quot;, Arial, sans-serif, &amp;quot;Apple Color Emoji&amp;quot;, &amp;quot;Segoe UI Emoji&amp;quot;, &amp;quot;Segoe UI Symbol&amp;quot;, &amp;quot;Noto Color Emoji&amp;quot;; background-color: rgb(255, 255, 255);&quot; class=&quot;studentAnswer card-text&quot;&gt;Student&#39;s answer:&lt;/p&gt;&lt;p style=&quot;box-sizing: border-box; margin-top: 0px; margin-bottom: 1rem; font-size: 1.2rem; color: rgb(33, 37, 41); font-family: system-ui, -apple-system, &amp;quot;Segoe UI&amp;quot;, Roboto, &amp;quot;Helvetica Neue&amp;quot;, &amp;quot;Noto Sans&amp;quot;, &amp;quot;Liberation Sans&amp;quot;, Arial, sans-serif, &amp;quot;Apple Color Emoji&amp;quot;, &amp;quot;Segoe UI Emoji&amp;quot;, &amp;quot;Segoe UI Symbol&amp;quot;, &amp;quot;Noto Color Emoji&amp;quot;; background-color: rgb(255, 255, 255);&quot; class=&quot;studentAnswer card-text&quot;&gt;&lt;br&gt;&lt;/p&gt;&lt;p style=&quot;box-sizing: border-box; margin-top: 0px; margin-bottom: 1rem; font-size: 1.2rem; color: rgb(33, 37, 41); font-family: system-ui, -apple-system, &amp;quot;Segoe UI&amp;quot;, Roboto, &amp;quot;Helvetica Neue&amp;quot;, &amp;quot;Noto Sans&amp;quot;, &amp;quot;Liberation Sans&amp;quot;, Arial, sans-serif, &amp;quot;Apple Color Emoji&amp;quot;, &amp;quot;Segoe UI Emoji&amp;quot;, &amp;quot;Segoe UI Symbol&amp;quot;, &amp;quot;Noto Color Emoji&amp;quot;; background-color: rgb(255, 255, 255);&quot; class=&quot;studentAnswer card-text&quot;&gt;Score&lt;/p&gt;&lt;p style=&quot;box-sizing: border-box; margin-top: 0px; margin-bottom: 1rem; font-size: 1.2rem; color: rgb(33, 37, 41); font-family: system-ui, -apple-system, &amp;quot;Segoe UI&amp;quot;, Roboto, &amp;quot;Helvetica Neue&amp;quot;, &amp;quot;Noto Sans&amp;quot;, &amp;quot;Liberation Sans&amp;quot;, Arial, sans-serif, &amp;quot;Apple Color Emoji&amp;quot;, &amp;quot;Segoe UI Emoji&amp;quot;, &amp;quot;Segoe UI Symbol&amp;quot;, &amp;quot;Noto Color Emoji&amp;quot;; background-color: rgb(255, 255, 255);&quot; class=&quot;studentAnswer card-text&quot;&gt;&lt;br&gt;&lt;/p&gt;&lt;p style=&quot;box-sizing: border-box; margin-top: 0px; margin-bottom: 1rem; font-size: 1.2rem; color: rgb(33, 37, 41); font-family: system-ui, -apple-system, &amp;quot;Segoe UI&amp;quot;, Roboto, &amp;quot;Helvetica Neue&amp;quot;, &amp;quot;Noto Sans&amp;quot;, &amp;quot;Liberation Sans&amp;quot;, Arial, sans-serif, &amp;quot;Apple Color Emoji&amp;quot;, &amp;quot;Segoe UI Emoji&amp;quot;, &amp;quot;Segoe UI Symbol&amp;quot;, &amp;quot;Noto Color Emoji&amp;quot;; background-color: rgb(255, 255, 255);&quot; class=&quot;studentAnswer card-text&quot;&gt;&lt;br&gt;&lt;/p&gt;&lt;p style=&quot;box-sizing: border-box; margin-top: 0px; margin-bottom: 1rem; font-size: 1.2rem; color: rgb(33, 37, 41); font-family: system-ui, -apple-system, &amp;quot;Segoe UI&amp;quot;, Roboto, &amp;quot;Helvetica Neue&amp;quot;, &amp;quot;Noto Sans&amp;quot;, &amp;quot;Liberation Sans&amp;quot;, Arial, sans-serif, &amp;quot;Apple Color Emoji&amp;quot;, &amp;quot;Segoe UI Emoji&amp;quot;, &amp;quot;Segoe UI Symbol&amp;quot;, &amp;quot;Noto Color Emoji&amp;quot;; background-color: rgb(255, 255, 255);&quot; class=&quot;studentAnswer card-text&quot;&gt;**ONLY non-negative numerical value in the range of 0-100**&lt;br&gt;&lt;/p&gt;&lt;p style=&quot;box-sizing: border-box; margin-top: 0px; margin-bottom: 1rem; font-size: 1.2rem; color: rgb(33, 37, 41); font-family: system-ui, -apple-system, &amp;quot;Segoe UI&amp;quot;, Roboto, &amp;quot;Helvetica Neue&amp;quot;, &amp;quot;Noto Sans&amp;quot;, &amp;quot;Liberation Sans&amp;quot;, Arial, sans-serif, &amp;quot;Apple Color Emoji&amp;quot;, &amp;quot;Segoe UI Emoji&amp;quot;, &amp;quot;Segoe UI Symbol&amp;quot;, &amp;quot;Noto Color Emoji&amp;quot;; background-color: rgb(255, 255, 255);&quot; class=&quot;studentAnswer card-text&quot;&gt;&lt;br&gt;&lt;/p&gt;" style="whiteSpace=wrap;html=1;aspect=fixed;align=left;movable=1;resizable=1;rotatable=1;deletable=1;editable=1;locked=0;connectable=1;" vertex="1" parent="zW8ntHKJu_nd5cqJYW5A-24">
          <mxGeometry x="350" y="720" width="460" height="460" as="geometry" />
        </mxCell>
        <mxCell id="zW8ntHKJu_nd5cqJYW5A-37" value="Confrim" style="strokeWidth=1;shadow=0;dashed=0;align=center;html=1;shape=mxgraph.mockup.buttons.button;mainText=;buttonStyle=round;fontSize=17;fontStyle=0;fillColor=none;whiteSpace=wrap;rounded=0;labelBackgroundColor=none;" vertex="1" parent="zW8ntHKJu_nd5cqJYW5A-24">
          <mxGeometry x="360" y="1130" width="130" height="40" as="geometry" />
        </mxCell>
        <mxCell id="zW8ntHKJu_nd5cqJYW5A-65" value="&lt;font style=&quot;font-size: 20px;&quot;&gt;80&lt;/font&gt;" style="rounded=0;whiteSpace=wrap;html=1;align=left;" vertex="1" parent="zW8ntHKJu_nd5cqJYW5A-24">
          <mxGeometry x="360" y="960" width="210" height="35" as="geometry" />
        </mxCell>
        <mxCell id="zW8ntHKJu_nd5cqJYW5A-46" value="&lt;font style=&quot;font-size: 15px;&quot;&gt;Technical illustration, Instructional design, Financial advice&lt;/font&gt;" style="rounded=0;whiteSpace=wrap;html=1;align=left;" vertex="1" parent="zW8ntHKJu_nd5cqJYW5A-24">
          <mxGeometry x="360" y="880" width="400" height="35" as="geometry" />
        </mxCell>
        <mxCell id="zW8ntHKJu_nd5cqJYW5A-44" value="&lt;div style=&quot;box-sizing: border-box; margin-top: 0px; margin-bottom: var(--bs-card-title-spacer-y); line-height: 1.2; color: rgb(33, 37, 41); font-size: 1.25rem; font-family: system-ui, -apple-system, &amp;quot;Segoe UI&amp;quot;, Roboto, &amp;quot;Helvetica Neue&amp;quot;, &amp;quot;Noto Sans&amp;quot;, &amp;quot;Liberation Sans&amp;quot;, Arial, sans-serif, &amp;quot;Apple Color Emoji&amp;quot;, &amp;quot;Segoe UI Emoji&amp;quot;, &amp;quot;Segoe UI Symbol&amp;quot;, &amp;quot;Noto Color Emoji&amp;quot;; background-color: rgb(255, 255, 255);&quot; class=&quot;card-title h5&quot;&gt;Assignment 3&lt;/div&gt;&lt;div style=&quot;box-sizing: border-box; font-size: 16px; padding: 1.2rem 0px; margin-top: calc(-0.5 * var(--bs-card-title-spacer-y)); margin-bottom: 0px; line-height: 1.2; color: rgb(33, 37, 41); font-family: system-ui, -apple-system, &amp;quot;Segoe UI&amp;quot;, Roboto, &amp;quot;Helvetica Neue&amp;quot;, &amp;quot;Noto Sans&amp;quot;, &amp;quot;Liberation Sans&amp;quot;, Arial, sans-serif, &amp;quot;Apple Color Emoji&amp;quot;, &amp;quot;Segoe UI Emoji&amp;quot;, &amp;quot;Segoe UI Symbol&amp;quot;, &amp;quot;Noto Color Emoji&amp;quot;; background-color: rgb(255, 255, 255);&quot; class=&quot;description card-subtitle h6&quot;&gt;The current Prime Minister in Canada is (include the starting year for the PM)&lt;br&gt;&lt;/div&gt;&lt;p style=&quot;box-sizing: border-box; margin-top: 0px; margin-bottom: 1rem; font-size: 1.2rem; color: rgb(33, 37, 41); font-family: system-ui, -apple-system, &amp;quot;Segoe UI&amp;quot;, Roboto, &amp;quot;Helvetica Neue&amp;quot;, &amp;quot;Noto Sans&amp;quot;, &amp;quot;Liberation Sans&amp;quot;, Arial, sans-serif, &amp;quot;Apple Color Emoji&amp;quot;, &amp;quot;Segoe UI Emoji&amp;quot;, &amp;quot;Segoe UI Symbol&amp;quot;, &amp;quot;Noto Color Emoji&amp;quot;; background-color: rgb(255, 255, 255);&quot; class=&quot;studentAnswer card-text&quot;&gt;Student&#39;s answer:&lt;/p&gt;&lt;p style=&quot;box-sizing: border-box; margin-top: 0px; margin-bottom: 1rem; font-size: 1.2rem; color: rgb(33, 37, 41); font-family: system-ui, -apple-system, &amp;quot;Segoe UI&amp;quot;, Roboto, &amp;quot;Helvetica Neue&amp;quot;, &amp;quot;Noto Sans&amp;quot;, &amp;quot;Liberation Sans&amp;quot;, Arial, sans-serif, &amp;quot;Apple Color Emoji&amp;quot;, &amp;quot;Segoe UI Emoji&amp;quot;, &amp;quot;Segoe UI Symbol&amp;quot;, &amp;quot;Noto Color Emoji&amp;quot;; background-color: rgb(255, 255, 255);&quot; class=&quot;studentAnswer card-text&quot;&gt;&lt;br&gt;&lt;/p&gt;&lt;p style=&quot;box-sizing: border-box; margin-top: 0px; margin-bottom: 1rem; font-size: 1.2rem; color: rgb(33, 37, 41); font-family: system-ui, -apple-system, &amp;quot;Segoe UI&amp;quot;, Roboto, &amp;quot;Helvetica Neue&amp;quot;, &amp;quot;Noto Sans&amp;quot;, &amp;quot;Liberation Sans&amp;quot;, Arial, sans-serif, &amp;quot;Apple Color Emoji&amp;quot;, &amp;quot;Segoe UI Emoji&amp;quot;, &amp;quot;Segoe UI Symbol&amp;quot;, &amp;quot;Noto Color Emoji&amp;quot;; background-color: rgb(255, 255, 255);&quot; class=&quot;studentAnswer card-text&quot;&gt;Score&lt;/p&gt;&lt;p style=&quot;box-sizing: border-box; margin-top: 0px; margin-bottom: 1rem; font-size: 1.2rem; color: rgb(33, 37, 41); font-family: system-ui, -apple-system, &amp;quot;Segoe UI&amp;quot;, Roboto, &amp;quot;Helvetica Neue&amp;quot;, &amp;quot;Noto Sans&amp;quot;, &amp;quot;Liberation Sans&amp;quot;, Arial, sans-serif, &amp;quot;Apple Color Emoji&amp;quot;, &amp;quot;Segoe UI Emoji&amp;quot;, &amp;quot;Segoe UI Symbol&amp;quot;, &amp;quot;Noto Color Emoji&amp;quot;; background-color: rgb(255, 255, 255);&quot; class=&quot;studentAnswer card-text&quot;&gt;&lt;br&gt;&lt;/p&gt;&lt;p style=&quot;box-sizing: border-box; margin-top: 0px; margin-bottom: 1rem; font-size: 1.2rem; color: rgb(33, 37, 41); font-family: system-ui, -apple-system, &amp;quot;Segoe UI&amp;quot;, Roboto, &amp;quot;Helvetica Neue&amp;quot;, &amp;quot;Noto Sans&amp;quot;, &amp;quot;Liberation Sans&amp;quot;, Arial, sans-serif, &amp;quot;Apple Color Emoji&amp;quot;, &amp;quot;Segoe UI Emoji&amp;quot;, &amp;quot;Segoe UI Symbol&amp;quot;, &amp;quot;Noto Color Emoji&amp;quot;; background-color: rgb(255, 255, 255);&quot; class=&quot;studentAnswer card-text&quot;&gt;&lt;br&gt;&lt;/p&gt;&lt;p style=&quot;box-sizing: border-box; margin-top: 0px; margin-bottom: 1rem; font-size: 1.2rem; color: rgb(33, 37, 41); font-family: system-ui, -apple-system, &amp;quot;Segoe UI&amp;quot;, Roboto, &amp;quot;Helvetica Neue&amp;quot;, &amp;quot;Noto Sans&amp;quot;, &amp;quot;Liberation Sans&amp;quot;, Arial, sans-serif, &amp;quot;Apple Color Emoji&amp;quot;, &amp;quot;Segoe UI Emoji&amp;quot;, &amp;quot;Segoe UI Symbol&amp;quot;, &amp;quot;Noto Color Emoji&amp;quot;; background-color: rgb(255, 255, 255);&quot; class=&quot;studentAnswer card-text&quot;&gt;**ONLY non-negative numerical value in the range of 0-100**&lt;br&gt;&lt;/p&gt;&lt;p style=&quot;box-sizing: border-box; margin-top: 0px; margin-bottom: 1rem; font-size: 1.2rem; color: rgb(33, 37, 41); font-family: system-ui, -apple-system, &amp;quot;Segoe UI&amp;quot;, Roboto, &amp;quot;Helvetica Neue&amp;quot;, &amp;quot;Noto Sans&amp;quot;, &amp;quot;Liberation Sans&amp;quot;, Arial, sans-serif, &amp;quot;Apple Color Emoji&amp;quot;, &amp;quot;Segoe UI Emoji&amp;quot;, &amp;quot;Segoe UI Symbol&amp;quot;, &amp;quot;Noto Color Emoji&amp;quot;; background-color: rgb(255, 255, 255);&quot; class=&quot;studentAnswer card-text&quot;&gt;&lt;br&gt;&lt;/p&gt;" style="whiteSpace=wrap;html=1;aspect=fixed;align=left;movable=1;resizable=1;rotatable=1;deletable=1;editable=1;locked=0;connectable=1;" vertex="1" parent="zW8ntHKJu_nd5cqJYW5A-24">
          <mxGeometry x="350" y="1190" width="460" height="460" as="geometry" />
        </mxCell>
        <mxCell id="zW8ntHKJu_nd5cqJYW5A-36" value="Start Marking" style="strokeWidth=1;shadow=0;dashed=0;align=center;html=1;shape=mxgraph.mockup.buttons.button;mainText=;buttonStyle=round;fontSize=17;fontStyle=0;fillColor=none;whiteSpace=wrap;rounded=0;labelBackgroundColor=none;" vertex="1" parent="zW8ntHKJu_nd5cqJYW5A-24">
          <mxGeometry x="360" y="1600" width="130" height="40" as="geometry" />
        </mxCell>
        <mxCell id="zW8ntHKJu_nd5cqJYW5A-47" value="&lt;span style=&quot;font-size: 20px;&quot;&gt;Hello World 123&lt;/span&gt;" style="rounded=0;whiteSpace=wrap;html=1;align=left;" vertex="1" parent="zW8ntHKJu_nd5cqJYW5A-24">
          <mxGeometry x="360" y="1355" width="210" height="35" as="geometry" />
        </mxCell>
        <mxCell id="zW8ntHKJu_nd5cqJYW5A-48" value="&lt;font style=&quot;font-size: 20px;&quot;&gt;100&lt;/font&gt;" style="rounded=0;whiteSpace=wrap;html=1;align=left;" vertex="1" parent="zW8ntHKJu_nd5cqJYW5A-24">
          <mxGeometry x="360" y="1435" width="210" height="35" as="geometry" />
        </mxCell>
        <mxCell id="zW8ntHKJu_nd5cqJYW5A-66" value="" style="strokeWidth=1;shadow=0;dashed=0;align=center;html=1;shape=mxgraph.mockup.containers.browserWindow;rSize=0;mainText=,;recursiveResize=0;rounded=0;labelBackgroundColor=none;fontFamily=Verdana;fontSize=12;movable=1;resizable=1;rotatable=1;deletable=1;editable=1;locked=0;connectable=1;" vertex="1" parent="1">
          <mxGeometry x="1730" y="1580" width="1050" height="940" as="geometry" />
        </mxCell>
        <mxCell id="zW8ntHKJu_nd5cqJYW5A-67" value="&lt;font style=&quot;font-size: 15px;&quot;&gt;BCIT E-Learning&lt;/font&gt;" style="strokeWidth=1;shadow=0;dashed=0;align=center;html=1;shape=mxgraph.mockup.containers.anchor;fontSize=17;align=left;labelBackgroundColor=none;" vertex="1" parent="zW8ntHKJu_nd5cqJYW5A-66">
          <mxGeometry x="60" y="12" width="110" height="26" as="geometry" />
        </mxCell>
        <mxCell id="zW8ntHKJu_nd5cqJYW5A-68" value="localhost:3000/register" style="strokeWidth=1;shadow=0;dashed=0;align=center;html=1;shape=mxgraph.mockup.containers.anchor;rSize=0;fontSize=17;align=left;labelBackgroundColor=none;" vertex="1" parent="zW8ntHKJu_nd5cqJYW5A-66">
          <mxGeometry x="130" y="60" width="250" height="26" as="geometry" />
        </mxCell>
        <mxCell id="zW8ntHKJu_nd5cqJYW5A-69" value="InstructorName" style="text;html=1;points=[];align=left;verticalAlign=top;spacingTop=-4;fontSize=15;fontFamily=Verdana;labelBackgroundColor=none;" vertex="1" parent="zW8ntHKJu_nd5cqJYW5A-66">
          <mxGeometry x="855" y="145" width="125" height="30" as="geometry" />
        </mxCell>
        <mxCell id="zW8ntHKJu_nd5cqJYW5A-70" value="" style="verticalLabelPosition=bottom;shadow=0;dashed=0;align=center;html=1;verticalAlign=top;strokeWidth=1;shape=mxgraph.mockup.markup.line;rounded=0;labelBackgroundColor=none;fontFamily=Verdana;fontSize=12;" vertex="1" parent="zW8ntHKJu_nd5cqJYW5A-66">
          <mxGeometry y="90" width="1050" height="240" as="geometry" />
        </mxCell>
        <mxCell id="zW8ntHKJu_nd5cqJYW5A-71" value="Register" style="strokeWidth=1;shadow=0;dashed=0;align=center;html=1;shape=mxgraph.mockup.buttons.button;mainText=;buttonStyle=round;fontSize=17;fontStyle=0;fillColor=none;whiteSpace=wrap;rounded=0;labelBackgroundColor=none;" vertex="1" parent="zW8ntHKJu_nd5cqJYW5A-66">
          <mxGeometry x="380" y="720" width="90" height="30" as="geometry" />
        </mxCell>
        <mxCell id="zW8ntHKJu_nd5cqJYW5A-72" value="&lt;font style=&quot;font-size: 30px;&quot;&gt;Enter New Student&#39;s Information&lt;/font&gt;" style="text;html=1;points=[];align=left;verticalAlign=top;spacingTop=-4;fontSize=12;fontFamily=Verdana;whiteSpace=wrap;labelBackgroundColor=none;" vertex="1" parent="zW8ntHKJu_nd5cqJYW5A-66">
          <mxGeometry x="300" y="235" width="522.5" height="45" as="geometry" />
        </mxCell>
        <mxCell id="zW8ntHKJu_nd5cqJYW5A-73" value="&lt;font style=&quot;font-size: 18px;&quot;&gt;BCIT Copyright&amp;nbsp; 2023&lt;/font&gt;" style="text;html=1;points=[];align=left;verticalAlign=top;spacingTop=-4;fontSize=12;fontFamily=Verdana;whiteSpace=wrap;labelBackgroundColor=none;" vertex="1" parent="zW8ntHKJu_nd5cqJYW5A-66">
          <mxGeometry x="420" y="910" width="210" height="30" as="geometry" />
        </mxCell>
        <mxCell id="zW8ntHKJu_nd5cqJYW5A-74" value="&lt;p style=&quot;line-height: 60%; font-size: 29px;&quot;&gt;&lt;img height=&quot;91&quot; width=&quot;100&quot; src=&quot;data:image/png;base64,iVBORw0KGgoAAAANSUhEUgAAAGQAAABbCAYAAACFziAsAAAAAXNSR0IArs4c6QAACM9JREFUeF7tnXtQVUUcx7+AVx4ikEqiRGg1mYbpiI/SfAQ1Umn5yBc91FL/SEWI8G2mBaVSImJqY2pSmiaEY2qaiaKYOjIiyaQiUqghFAmi8oZ2Ma537zn3wL1tdYrfzjDgnt/++J3v5+7rt6vaAXCGu29n9p3K36VAdUUpbuT92Bj3dnC/1x9dh55sjDHZ2KhAWUkayooy0czp9ge/pjIf5TfPwtljINK39YZXl1Hw8otgP/chIDZqbFUzDiQ7eQJ8es1jUNrhYmoYOvReCNe7n8eRrW7oFZQCR/fuOLLKnoBYpayNxhzIyU090fnpGBhcOiAjYRi6j0qCq6cvco5GoWO/z5lnAwGxUV+rm1kCUlp8AG7eY2FX64bmLR4mIFYra2MDS0AKszbAt18SrqRHwLv7MgJio75WN7MI5MJ6+PSJx6ltfvAfl0tArFbWxgb1QAA75oF/1bAve7XvNKnbqLFVze4AabAZAWlQIgkGBESCiDJdEBCZakrwRUAkiCjTBQGRqaYEXwREgogyXRAQmWpK8EVAJIgo0wUBkammBF8ERIKIMl0QEJlqSvBFQCSIKNMFAZGppgRfBESCiDJdEBCZakrwRUAkiCjTBQGRqaYEXwREgogyXRAQmWpK8EVAJIgo04VsIA/63I2PwsdYDLGmphY3SsuRc7UQx878hEPpWSi4VmLzKz3b1w8xISNxX/s2sLfjlzSA2tpa5DOfUfF7EZeQUvdnrRLYsxNiZ4wSTM7k5GHMW58Y61xdHHF8bYTNcdY3fP+zfYjfe8KyH9lA/Dv54OS6WVYFzuVKOpxRJ0BlVXWj2rZr7YbsrYvg7GjQtOcwBoWsQEr6BYt2z/d/BElRU4TnaecuoeekJcY6txZOKP4mulGxaRmFxm7Hii8P6huIaXQ9Jy1F2rlczRd/4B5PZG1ZaJU4g8NXYd8J9Vv+BKQBKT2CIlB8s1TVysHeHpUHV8Duz+HJGiqOT8xAhUoPbHJA+LBRVc0v4N0uXFR7dpneUuHjd9dXIlUf74+ZjkD/Topn12+WIS7xEPj314f3x71tWylsdn2fiSEzVyvqGwvk2p5lqjHVz12mD2sszFthsQmI3f4vD1k7jmRg2JyPhZfhLzHhmUfxyewX1V9ywHTFZOzU3IDS75Yr7Ld8l4bgtzcI9XNfGYzIyUMVtvYqfhsDRKsnViSvgKGZg2DSnPXGxs6HQsN/YlJXA1IfRA+2CEhTWQT4vrAAufnXhFijp41A+JgAoa60vBIuT4ap6pW3IwperdyEZwOmxeDwaXGCJyBm8ql9wgJCY5Gcdl6wvLV/uWJVFbx4I7Z8q/637Pp2vQ+pH70h+NiZ+gOem71WqCMgZkCufBWJ9m3chdqhs9fg69QzxjoHB3tUHYxV9IRmA0NQXXNnfjI1qLs6fjhOaMPnGPegNwmI+Rxiqkjh7qVo1dJFEKnHa0tw6vwlY12Xju2QuWmeYMPHaD5WaxW+d+B7iPrCN6YOA6cTEC0gtWafYq6WU2AoyiuqjMKFjn4Cy6ePFIQ8l1uAh15crAmkbauWKLlVjjI211ha+dCQZSJh9FQ2UY8VJ+riG6XweFpMUyRGTsbwAd0E8b9gq6txZqsrTToWHhIQJoy7qzO+eHsigvp0UcjUbcJ7yMi+ItT/wIYrPzZsmZaF63dh8YY9tjBo2kMWf3s+dtcVNtOqbaTqFQpbmYCYbckKkX9JigLPX5mWyUs3Y93OowRESwFbkovcH0+V9J4SjfO5+aruf2cT/11mE/8LLBmZkHyKgPwdQLjPw6ezETAjlqVZlBlf89USt+cLBb7p/Kulyc0h1gjG815tn5uDX4tuCM2KWB6JzzumZeSCdUg8mG6Ne1XbJgfk66Nn2FnHeqMYPLHo7emBmcFP4tVnH1OIxHuIYZC4vyjY+T48PVwF2/GR8dj0zXECYu2QpZXL4pu2IrZ5M8/9zlydhGWb9xt/1cVti9CxXWvhV4fHJeLDrQcIiEwg3FcYSxh+yBKHpoVv5twGhxurUleHo69fR8FmZcIhhMR8SUBkA3F1dkTJvg8Ubu36TzPWrZ05DlOG9hNskk9lIYAdz2qVzr5e6MB6VuZPeSj4vQRlFZUK8yY3h2gNWVwdfvpXk7JSIZRhUIjxYCv4qV74/K3xgg2/yODFFgBaZTPbfI4L9BdMfEYuwOWCO6l9AmKmIJ/kqw8pgZge8vBFwOXEd4WWfEXGD5y0yvW90Wjpcie5yG0dWBvTvBYBMVOQJwCv7nhPoavp6R4/Qq9JEVPpvMFdLOdVxHJfaqW5wQHlB8QhrbyyCk4BoYI5ATFTb+uiVzE6oEeDn/7fdi1Ba7cWgt3GPccxMSpeFcjKsFGYNmKg8EwtIUlATCSaOmIA4sJGKwQ9+3M+Or/0jlD/OrNdpWLbZsgsFBbfFGzbsqPbq+wI17zcM2I+rvxa1LR7SF7hdXyfmWMUwYVdbnvA2xP3e7exeJ3n8anLkZqRLQjHk5LVKpM/v+AxPmoTtrO8Fv95dGAPfDr3ZQUMni/jV4zMS5PrIZqzrspDDrD9sLmqzd6ZNATzxwdZ67LOvttElta/IKb1eT0B0ZCzjJ0StmQbwiqNK6WX2Rm8t9kZfEOEtuw/ieBFG1XNCIgF9XYf4xfZ1jR4OZrvW3JYKsXXS3kZTs01vzc8fK54L8zUjoAwNfgeoqKyGucuFdTdONy4+5jVF8v4Rbs1b46Fo6GZKuJrJbfwTMRqHDOZv9QM/9dA+AtrnQjyc8OG/npAQ8OP+XN+A/5hdrzbwat13YYv63IB+CrNppuD1v5y2fayby7Kjq/J+SMgOkNOQAiIzhTQWTjUQwiIzhTQWTjUQwiIzhTQWTjUQwiIzhTQWTjUQwiIzhTQWTjUQwiIzhTQWTjUQwiIzhTQWTjUQwiIzhTQWTjUQwiIzhTQWTjUQwiIzhTQWTjUQwiIzhTQWTjUQwiIzhTQWTjUQwiIzhTQWTjUQ/7LQG7HbvlfQNbZu/2Hw9H+3wP+fLE/AC02abzF3tZdAAAAAElFTkSuQmCC&quot;&gt;&lt;br&gt;&lt;/p&gt;" style="text;html=1;points=[];align=left;verticalAlign=top;spacingTop=-4;fontSize=30;fontFamily=Verdana;labelBackgroundColor=none;" vertex="1" parent="zW8ntHKJu_nd5cqJYW5A-66">
          <mxGeometry x="110" y="86" width="340" height="50" as="geometry" />
        </mxCell>
        <mxCell id="zW8ntHKJu_nd5cqJYW5A-75" value="First Name" style="text;html=1;points=[];align=left;verticalAlign=top;spacingTop=-4;fontSize=15;fontFamily=Verdana;labelBackgroundColor=none;" vertex="1" parent="zW8ntHKJu_nd5cqJYW5A-66">
          <mxGeometry x="380" y="295" width="110" height="30" as="geometry" />
        </mxCell>
        <mxCell id="zW8ntHKJu_nd5cqJYW5A-76" value="Last Name" style="text;html=1;points=[];align=left;verticalAlign=top;spacingTop=-4;fontSize=15;fontFamily=Verdana;labelBackgroundColor=none;" vertex="1" parent="zW8ntHKJu_nd5cqJYW5A-66">
          <mxGeometry x="380" y="365" width="110" height="30" as="geometry" />
        </mxCell>
        <mxCell id="zW8ntHKJu_nd5cqJYW5A-77" value="" style="rounded=1;whiteSpace=wrap;html=1;labelBackgroundColor=none;" vertex="1" parent="zW8ntHKJu_nd5cqJYW5A-66">
          <mxGeometry x="380" y="325" width="320" height="25" as="geometry" />
        </mxCell>
        <mxCell id="zW8ntHKJu_nd5cqJYW5A-78" value="" style="rounded=1;whiteSpace=wrap;html=1;labelBackgroundColor=none;" vertex="1" parent="zW8ntHKJu_nd5cqJYW5A-66">
          <mxGeometry x="380" y="395" width="320" height="25" as="geometry" />
        </mxCell>
        <mxCell id="zW8ntHKJu_nd5cqJYW5A-79" value="Students" style="text;html=1;points=[];align=left;verticalAlign=top;spacingTop=-4;fontSize=15;fontFamily=Verdana;labelBackgroundColor=none;" vertex="1" parent="zW8ntHKJu_nd5cqJYW5A-66">
          <mxGeometry x="750" y="145" width="80" height="30" as="geometry" />
        </mxCell>
        <mxCell id="zW8ntHKJu_nd5cqJYW5A-82" value="" style="rounded=1;whiteSpace=wrap;html=1;labelBackgroundColor=none;" vertex="1" parent="zW8ntHKJu_nd5cqJYW5A-66">
          <mxGeometry x="380" y="600" width="320" height="25" as="geometry" />
        </mxCell>
        <mxCell id="zW8ntHKJu_nd5cqJYW5A-81" value="" style="rounded=1;whiteSpace=wrap;html=1;labelBackgroundColor=none;" vertex="1" parent="zW8ntHKJu_nd5cqJYW5A-66">
          <mxGeometry x="380" y="530" width="320" height="25" as="geometry" />
        </mxCell>
        <mxCell id="zW8ntHKJu_nd5cqJYW5A-80" value="" style="rounded=1;whiteSpace=wrap;html=1;labelBackgroundColor=none;" vertex="1" parent="zW8ntHKJu_nd5cqJYW5A-66">
          <mxGeometry x="380" y="460" width="320" height="25" as="geometry" />
        </mxCell>
        <mxCell id="zW8ntHKJu_nd5cqJYW5A-84" value="BCIT Email" style="text;html=1;points=[];align=left;verticalAlign=top;spacingTop=-4;fontSize=15;fontFamily=Verdana;labelBackgroundColor=none;" vertex="1" parent="zW8ntHKJu_nd5cqJYW5A-66">
          <mxGeometry x="380" y="430" width="110" height="30" as="geometry" />
        </mxCell>
        <mxCell id="zW8ntHKJu_nd5cqJYW5A-85" value="Password" style="text;html=1;points=[];align=left;verticalAlign=top;spacingTop=-4;fontSize=15;fontFamily=Verdana;labelBackgroundColor=none;" vertex="1" parent="zW8ntHKJu_nd5cqJYW5A-66">
          <mxGeometry x="380" y="500" width="110" height="30" as="geometry" />
        </mxCell>
        <mxCell id="zW8ntHKJu_nd5cqJYW5A-86" value="Confirm Password" style="text;html=1;points=[];align=left;verticalAlign=top;spacingTop=-4;fontSize=15;fontFamily=Verdana;labelBackgroundColor=none;" vertex="1" parent="zW8ntHKJu_nd5cqJYW5A-66">
          <mxGeometry x="380" y="570" width="150" height="30" as="geometry" />
        </mxCell>
        <mxCell id="zW8ntHKJu_nd5cqJYW5A-87" value="What is your role?" style="text;html=1;points=[];align=left;verticalAlign=top;spacingTop=-4;fontSize=15;fontFamily=Verdana;labelBackgroundColor=none;" vertex="1" parent="zW8ntHKJu_nd5cqJYW5A-66">
          <mxGeometry x="380" y="640" width="150" height="30" as="geometry" />
        </mxCell>
        <mxCell id="zW8ntHKJu_nd5cqJYW5A-88" value="" style="ellipse;whiteSpace=wrap;html=1;aspect=fixed;" vertex="1" parent="zW8ntHKJu_nd5cqJYW5A-66">
          <mxGeometry x="380" y="670" width="10" height="10" as="geometry" />
        </mxCell>
        <mxCell id="zW8ntHKJu_nd5cqJYW5A-90" value="" style="ellipse;whiteSpace=wrap;html=1;aspect=fixed;" vertex="1" parent="zW8ntHKJu_nd5cqJYW5A-66">
          <mxGeometry x="380" y="690" width="10" height="10" as="geometry" />
        </mxCell>
        <mxCell id="zW8ntHKJu_nd5cqJYW5A-91" value="Student" style="text;html=1;points=[];align=left;verticalAlign=top;spacingTop=-4;fontSize=15;fontFamily=Verdana;labelBackgroundColor=none;" vertex="1" parent="zW8ntHKJu_nd5cqJYW5A-66">
          <mxGeometry x="400" y="665" width="150" height="20" as="geometry" />
        </mxCell>
        <mxCell id="zW8ntHKJu_nd5cqJYW5A-92" value="Instructor" style="text;html=1;points=[];align=left;verticalAlign=top;spacingTop=-4;fontSize=15;fontFamily=Verdana;labelBackgroundColor=none;" vertex="1" parent="zW8ntHKJu_nd5cqJYW5A-66">
          <mxGeometry x="400" y="685" width="150" height="20" as="geometry" />
        </mxCell>
        <mxCell id="zW8ntHKJu_nd5cqJYW5A-93" value="" style="strokeWidth=1;shadow=0;dashed=0;align=left;html=1;shape=mxgraph.mockup.containers.browserWindow;rSize=0;mainText=,;recursiveResize=0;rounded=0;labelBackgroundColor=none;fontFamily=Verdana;fontSize=12;movable=1;resizable=1;rotatable=1;deletable=1;editable=1;locked=0;connectable=1;" vertex="1" parent="1">
          <mxGeometry x="20" y="1580" width="1050" height="1480" as="geometry" />
        </mxCell>
        <mxCell id="zW8ntHKJu_nd5cqJYW5A-94" value="&lt;font style=&quot;font-size: 15px;&quot;&gt;BCIT E-Learning&lt;/font&gt;" style="strokeWidth=1;shadow=0;dashed=0;align=center;html=1;shape=mxgraph.mockup.containers.anchor;fontSize=17;align=left;labelBackgroundColor=none;" vertex="1" parent="zW8ntHKJu_nd5cqJYW5A-93">
          <mxGeometry x="60" y="12" width="110" height="26" as="geometry" />
        </mxCell>
        <mxCell id="zW8ntHKJu_nd5cqJYW5A-95" value="localhost:3000/assignments/:studentId" style="strokeWidth=1;shadow=0;dashed=0;align=center;html=1;shape=mxgraph.mockup.containers.anchor;rSize=0;fontSize=17;align=left;labelBackgroundColor=none;" vertex="1" parent="zW8ntHKJu_nd5cqJYW5A-93">
          <mxGeometry x="130" y="60" width="310" height="26" as="geometry" />
        </mxCell>
        <mxCell id="zW8ntHKJu_nd5cqJYW5A-96" value="StudentName" style="text;html=1;points=[];align=left;verticalAlign=top;spacingTop=-4;fontSize=15;fontFamily=Verdana;labelBackgroundColor=none;" vertex="1" parent="zW8ntHKJu_nd5cqJYW5A-93">
          <mxGeometry x="855" y="145" width="115" height="30" as="geometry" />
        </mxCell>
        <mxCell id="zW8ntHKJu_nd5cqJYW5A-97" value="" style="verticalLabelPosition=bottom;shadow=0;dashed=0;align=center;html=1;verticalAlign=top;strokeWidth=1;shape=mxgraph.mockup.markup.line;rounded=0;labelBackgroundColor=none;fontFamily=Verdana;fontSize=12;" vertex="1" parent="zW8ntHKJu_nd5cqJYW5A-93">
          <mxGeometry y="90" width="1050" height="240" as="geometry" />
        </mxCell>
        <mxCell id="zW8ntHKJu_nd5cqJYW5A-100" value="&lt;font style=&quot;font-size: 18px;&quot;&gt;BCIT Copyright&amp;nbsp; 2023&lt;/font&gt;" style="text;html=1;points=[];align=left;verticalAlign=top;spacingTop=-4;fontSize=12;fontFamily=Verdana;whiteSpace=wrap;labelBackgroundColor=none;" vertex="1" parent="zW8ntHKJu_nd5cqJYW5A-93">
          <mxGeometry x="405" y="1450" width="210" height="30" as="geometry" />
        </mxCell>
        <mxCell id="zW8ntHKJu_nd5cqJYW5A-101" value="&lt;p style=&quot;line-height: 60%; font-size: 29px;&quot;&gt;&lt;img height=&quot;91&quot; width=&quot;100&quot; src=&quot;data:image/png;base64,iVBORw0KGgoAAAANSUhEUgAAAGQAAABbCAYAAACFziAsAAAAAXNSR0IArs4c6QAACM9JREFUeF7tnXtQVUUcx7+AVx4ikEqiRGg1mYbpiI/SfAQ1Umn5yBc91FL/SEWI8G2mBaVSImJqY2pSmiaEY2qaiaKYOjIiyaQiUqghFAmi8oZ2Ma537zn3wL1tdYrfzjDgnt/++J3v5+7rt6vaAXCGu29n9p3K36VAdUUpbuT92Bj3dnC/1x9dh55sjDHZ2KhAWUkayooy0czp9ge/pjIf5TfPwtljINK39YZXl1Hw8otgP/chIDZqbFUzDiQ7eQJ8es1jUNrhYmoYOvReCNe7n8eRrW7oFZQCR/fuOLLKnoBYpayNxhzIyU090fnpGBhcOiAjYRi6j0qCq6cvco5GoWO/z5lnAwGxUV+rm1kCUlp8AG7eY2FX64bmLR4mIFYra2MDS0AKszbAt18SrqRHwLv7MgJio75WN7MI5MJ6+PSJx6ltfvAfl0tArFbWxgb1QAA75oF/1bAve7XvNKnbqLFVze4AabAZAWlQIgkGBESCiDJdEBCZakrwRUAkiCjTBQGRqaYEXwREgogyXRAQmWpK8EVAJIgo0wUBkammBF8ERIKIMl0QEJlqSvBFQCSIKNMFAZGppgRfBESCiDJdEBCZakrwRUAkiCjTBQGRqaYEXwREgogyXRAQmWpK8EVAJIgo04VsIA/63I2PwsdYDLGmphY3SsuRc7UQx878hEPpWSi4VmLzKz3b1w8xISNxX/s2sLfjlzSA2tpa5DOfUfF7EZeQUvdnrRLYsxNiZ4wSTM7k5GHMW58Y61xdHHF8bYTNcdY3fP+zfYjfe8KyH9lA/Dv54OS6WVYFzuVKOpxRJ0BlVXWj2rZr7YbsrYvg7GjQtOcwBoWsQEr6BYt2z/d/BElRU4TnaecuoeekJcY6txZOKP4mulGxaRmFxm7Hii8P6huIaXQ9Jy1F2rlczRd/4B5PZG1ZaJU4g8NXYd8J9Vv+BKQBKT2CIlB8s1TVysHeHpUHV8Duz+HJGiqOT8xAhUoPbHJA+LBRVc0v4N0uXFR7dpneUuHjd9dXIlUf74+ZjkD/Topn12+WIS7xEPj314f3x71tWylsdn2fiSEzVyvqGwvk2p5lqjHVz12mD2sszFthsQmI3f4vD1k7jmRg2JyPhZfhLzHhmUfxyewX1V9ywHTFZOzU3IDS75Yr7Ld8l4bgtzcI9XNfGYzIyUMVtvYqfhsDRKsnViSvgKGZg2DSnPXGxs6HQsN/YlJXA1IfRA+2CEhTWQT4vrAAufnXhFijp41A+JgAoa60vBIuT4ap6pW3IwperdyEZwOmxeDwaXGCJyBm8ql9wgJCY5Gcdl6wvLV/uWJVFbx4I7Z8q/637Pp2vQ+pH70h+NiZ+gOem71WqCMgZkCufBWJ9m3chdqhs9fg69QzxjoHB3tUHYxV9IRmA0NQXXNnfjI1qLs6fjhOaMPnGPegNwmI+Rxiqkjh7qVo1dJFEKnHa0tw6vwlY12Xju2QuWmeYMPHaD5WaxW+d+B7iPrCN6YOA6cTEC0gtWafYq6WU2AoyiuqjMKFjn4Cy6ePFIQ8l1uAh15crAmkbauWKLlVjjI211ha+dCQZSJh9FQ2UY8VJ+riG6XweFpMUyRGTsbwAd0E8b9gq6txZqsrTToWHhIQJoy7qzO+eHsigvp0UcjUbcJ7yMi+ItT/wIYrPzZsmZaF63dh8YY9tjBo2kMWf3s+dtcVNtOqbaTqFQpbmYCYbckKkX9JigLPX5mWyUs3Y93OowRESwFbkovcH0+V9J4SjfO5+aruf2cT/11mE/8LLBmZkHyKgPwdQLjPw6ezETAjlqVZlBlf89USt+cLBb7p/Kulyc0h1gjG815tn5uDX4tuCM2KWB6JzzumZeSCdUg8mG6Ne1XbJgfk66Nn2FnHeqMYPLHo7emBmcFP4tVnH1OIxHuIYZC4vyjY+T48PVwF2/GR8dj0zXECYu2QpZXL4pu2IrZ5M8/9zlydhGWb9xt/1cVti9CxXWvhV4fHJeLDrQcIiEwg3FcYSxh+yBKHpoVv5twGhxurUleHo69fR8FmZcIhhMR8SUBkA3F1dkTJvg8Ubu36TzPWrZ05DlOG9hNskk9lIYAdz2qVzr5e6MB6VuZPeSj4vQRlFZUK8yY3h2gNWVwdfvpXk7JSIZRhUIjxYCv4qV74/K3xgg2/yODFFgBaZTPbfI4L9BdMfEYuwOWCO6l9AmKmIJ/kqw8pgZge8vBFwOXEd4WWfEXGD5y0yvW90Wjpcie5yG0dWBvTvBYBMVOQJwCv7nhPoavp6R4/Qq9JEVPpvMFdLOdVxHJfaqW5wQHlB8QhrbyyCk4BoYI5ATFTb+uiVzE6oEeDn/7fdi1Ba7cWgt3GPccxMSpeFcjKsFGYNmKg8EwtIUlATCSaOmIA4sJGKwQ9+3M+Or/0jlD/OrNdpWLbZsgsFBbfFGzbsqPbq+wI17zcM2I+rvxa1LR7SF7hdXyfmWMUwYVdbnvA2xP3e7exeJ3n8anLkZqRLQjHk5LVKpM/v+AxPmoTtrO8Fv95dGAPfDr3ZQUMni/jV4zMS5PrIZqzrspDDrD9sLmqzd6ZNATzxwdZ67LOvttElta/IKb1eT0B0ZCzjJ0StmQbwiqNK6WX2Rm8t9kZfEOEtuw/ieBFG1XNCIgF9XYf4xfZ1jR4OZrvW3JYKsXXS3kZTs01vzc8fK54L8zUjoAwNfgeoqKyGucuFdTdONy4+5jVF8v4Rbs1b46Fo6GZKuJrJbfwTMRqHDOZv9QM/9dA+AtrnQjyc8OG/npAQ8OP+XN+A/5hdrzbwat13YYv63IB+CrNppuD1v5y2fayby7Kjq/J+SMgOkNOQAiIzhTQWTjUQwiIzhTQWTjUQwiIzhTQWTjUQwiIzhTQWTjUQwiIzhTQWTjUQwiIzhTQWTjUQwiIzhTQWTjUQwiIzhTQWTjUQwiIzhTQWTjUQwiIzhTQWTjUQwiIzhTQWTjUQwiIzhTQWTjUQwiIzhTQWTjUQ/7LQG7HbvlfQNbZu/2Hw9H+3wP+fLE/AC02abzF3tZdAAAAAElFTkSuQmCC&quot;&gt;&lt;br&gt;&lt;/p&gt;" style="text;html=1;points=[];align=left;verticalAlign=top;spacingTop=-4;fontSize=30;fontFamily=Verdana;labelBackgroundColor=none;" vertex="1" parent="zW8ntHKJu_nd5cqJYW5A-93">
          <mxGeometry x="110" y="86" width="340" height="50" as="geometry" />
        </mxCell>
        <mxCell id="zW8ntHKJu_nd5cqJYW5A-106" value="Assignment" style="text;html=1;points=[];align=left;verticalAlign=top;spacingTop=-4;fontSize=15;fontFamily=Verdana;labelBackgroundColor=none;" vertex="1" parent="zW8ntHKJu_nd5cqJYW5A-93">
          <mxGeometry x="730" y="145" width="115" height="30" as="geometry" />
        </mxCell>
        <mxCell id="zW8ntHKJu_nd5cqJYW5A-107" value="&lt;p style=&quot;box-sizing: border-box; margin-top: 0px; margin-bottom: 1rem; font-size: 1.7rem; border-bottom: 1px solid rgb(58, 167, 201); padding-bottom: 0.5rem; color: rgb(33, 37, 41); font-family: system-ui, -apple-system, &amp;quot;Segoe UI&amp;quot;, Roboto, &amp;quot;Helvetica Neue&amp;quot;, &amp;quot;Noto Sans&amp;quot;, &amp;quot;Liberation Sans&amp;quot;, Arial, sans-serif, &amp;quot;Apple Color Emoji&amp;quot;, &amp;quot;Segoe UI Emoji&amp;quot;, &amp;quot;Segoe UI Symbol&amp;quot;, &amp;quot;Noto Color Emoji&amp;quot;; text-align: start; background-color: rgb(255, 255, 255);&quot; class=&quot;assignment&quot;&gt;Assignment&amp;nbsp;1&lt;/p&gt;&lt;div style=&quot;box-sizing: border-box; color: rgb(33, 37, 41); font-family: system-ui, -apple-system, &amp;quot;Segoe UI&amp;quot;, Roboto, &amp;quot;Helvetica Neue&amp;quot;, &amp;quot;Noto Sans&amp;quot;, &amp;quot;Liberation Sans&amp;quot;, Arial, sans-serif, &amp;quot;Apple Color Emoji&amp;quot;, &amp;quot;Segoe UI Emoji&amp;quot;, &amp;quot;Segoe UI Symbol&amp;quot;, &amp;quot;Noto Color Emoji&amp;quot;; font-size: 16px; text-align: start; background-color: rgb(255, 255, 255);&quot;&gt;&lt;label style=&quot;box-sizing: border-box; display: inline-block; margin-bottom: 0.5rem;&quot; class=&quot;form-label&quot;&gt;&lt;p style=&quot;box-sizing: border-box; margin-top: 0px; margin-bottom: 1rem; font-size: 1.3rem;&quot; class=&quot;title&quot;&gt;When was BCIT&#39;s 50th anniversary celebration?&lt;/p&gt;&lt;p style=&quot;box-sizing: border-box; margin-top: 0px; margin-bottom: 1rem; font-size: 1.3rem;&quot; class=&quot;title&quot;&gt;&lt;br&gt;&lt;/p&gt;&lt;p style=&quot;box-sizing: border-box; margin-top: 0px; margin-bottom: 1rem; font-size: 1.3rem;&quot; class=&quot;title&quot;&gt;&lt;br&gt;&lt;/p&gt;&lt;p style=&quot;box-sizing: border-box; margin-top: 0px; margin-bottom: 1rem; font-size: 1.3rem;&quot; class=&quot;title&quot;&gt;&lt;span style=&quot;font-size: 1.3rem;&quot;&gt;&lt;br&gt;&lt;/span&gt;&lt;/p&gt;&lt;p style=&quot;box-sizing: border-box; margin-top: 0px; margin-bottom: 1rem; font-size: 1.3rem;&quot; class=&quot;title&quot;&gt;&lt;span style=&quot;font-size: 1.3rem;&quot;&gt;&lt;br&gt;&lt;/span&gt;&lt;/p&gt;&lt;p style=&quot;box-sizing: border-box; margin-top: 0px; margin-bottom: 1rem; font-size: 1.3rem;&quot; class=&quot;title&quot;&gt;&lt;span style=&quot;font-size: 1.3rem;&quot;&gt;Score: N/A&lt;/span&gt;&lt;br&gt;&lt;/p&gt;&lt;/label&gt;&lt;/div&gt;" style="whiteSpace=wrap;html=1;aspect=fixed;strokeColor=none;" vertex="1" parent="zW8ntHKJu_nd5cqJYW5A-93">
          <mxGeometry x="335" y="270" width="350" height="350" as="geometry" />
        </mxCell>
        <mxCell id="zW8ntHKJu_nd5cqJYW5A-108" value="" style="ellipse;whiteSpace=wrap;html=1;aspect=fixed;" vertex="1" parent="zW8ntHKJu_nd5cqJYW5A-93">
          <mxGeometry x="350" y="400" width="20" height="20" as="geometry" />
        </mxCell>
        <mxCell id="zW8ntHKJu_nd5cqJYW5A-109" value="" style="ellipse;whiteSpace=wrap;html=1;aspect=fixed;" vertex="1" parent="zW8ntHKJu_nd5cqJYW5A-93">
          <mxGeometry x="350" y="430" width="20" height="20" as="geometry" />
        </mxCell>
        <mxCell id="zW8ntHKJu_nd5cqJYW5A-110" value="" style="ellipse;whiteSpace=wrap;html=1;aspect=fixed;" vertex="1" parent="zW8ntHKJu_nd5cqJYW5A-93">
          <mxGeometry x="350" y="460" width="20" height="20" as="geometry" />
        </mxCell>
        <mxCell id="zW8ntHKJu_nd5cqJYW5A-111" value="" style="ellipse;whiteSpace=wrap;html=1;aspect=fixed;" vertex="1" parent="zW8ntHKJu_nd5cqJYW5A-93">
          <mxGeometry x="350" y="490" width="20" height="20" as="geometry" />
        </mxCell>
        <mxCell id="zW8ntHKJu_nd5cqJYW5A-112" value="2016" style="rounded=0;whiteSpace=wrap;html=1;strokeColor=none;" vertex="1" parent="zW8ntHKJu_nd5cqJYW5A-93">
          <mxGeometry x="370" y="400" width="40" height="20" as="geometry" />
        </mxCell>
        <mxCell id="zW8ntHKJu_nd5cqJYW5A-113" value="1967" style="rounded=0;whiteSpace=wrap;html=1;strokeColor=none;" vertex="1" parent="zW8ntHKJu_nd5cqJYW5A-93">
          <mxGeometry x="370" y="430" width="40" height="20" as="geometry" />
        </mxCell>
        <mxCell id="zW8ntHKJu_nd5cqJYW5A-114" value="2017" style="rounded=0;whiteSpace=wrap;html=1;strokeColor=none;" vertex="1" parent="zW8ntHKJu_nd5cqJYW5A-93">
          <mxGeometry x="370" y="460" width="40" height="20" as="geometry" />
        </mxCell>
        <mxCell id="zW8ntHKJu_nd5cqJYW5A-115" value="1987" style="rounded=0;whiteSpace=wrap;html=1;strokeColor=none;" vertex="1" parent="zW8ntHKJu_nd5cqJYW5A-93">
          <mxGeometry x="370" y="490" width="40" height="20" as="geometry" />
        </mxCell>
        <mxCell id="zW8ntHKJu_nd5cqJYW5A-98" value="Submit Now" style="strokeWidth=1;shadow=0;dashed=0;align=center;html=1;shape=mxgraph.mockup.buttons.button;mainText=;buttonStyle=round;fontSize=17;fontStyle=0;fillColor=none;whiteSpace=wrap;rounded=0;labelBackgroundColor=none;strokeColor=default;" vertex="1" parent="zW8ntHKJu_nd5cqJYW5A-93">
          <mxGeometry x="580" y="560" width="100" height="30" as="geometry" />
        </mxCell>
        <mxCell id="zW8ntHKJu_nd5cqJYW5A-116" value="&lt;p style=&quot;box-sizing: border-box; margin-top: 0px; margin-bottom: 1rem; font-size: 1.7rem; border-bottom: 1px solid rgb(58, 167, 201); padding-bottom: 0.5rem; color: rgb(33, 37, 41); font-family: system-ui, -apple-system, &amp;quot;Segoe UI&amp;quot;, Roboto, &amp;quot;Helvetica Neue&amp;quot;, &amp;quot;Noto Sans&amp;quot;, &amp;quot;Liberation Sans&amp;quot;, Arial, sans-serif, &amp;quot;Apple Color Emoji&amp;quot;, &amp;quot;Segoe UI Emoji&amp;quot;, &amp;quot;Segoe UI Symbol&amp;quot;, &amp;quot;Noto Color Emoji&amp;quot;; text-align: start; background-color: rgb(255, 255, 255);&quot; class=&quot;assignment&quot;&gt;Assignment 2&lt;/p&gt;&lt;div style=&quot;box-sizing: border-box; color: rgb(33, 37, 41); font-family: system-ui, -apple-system, &amp;quot;Segoe UI&amp;quot;, Roboto, &amp;quot;Helvetica Neue&amp;quot;, &amp;quot;Noto Sans&amp;quot;, &amp;quot;Liberation Sans&amp;quot;, Arial, sans-serif, &amp;quot;Apple Color Emoji&amp;quot;, &amp;quot;Segoe UI Emoji&amp;quot;, &amp;quot;Segoe UI Symbol&amp;quot;, &amp;quot;Noto Color Emoji&amp;quot;; font-size: 16px; text-align: start; background-color: rgb(255, 255, 255);&quot;&gt;&lt;label style=&quot;box-sizing: border-box; display: inline-block; margin-bottom: 0.5rem;&quot; class=&quot;form-label&quot;&gt;&lt;p style=&quot;box-sizing: border-box; margin-top: 0px; margin-bottom: 1rem; font-size: 1.3rem;&quot; class=&quot;title&quot;&gt;Which of the following services does the LTC provide? Select all that apply.&lt;br&gt;&lt;/p&gt;&lt;p style=&quot;box-sizing: border-box; margin-top: 0px; margin-bottom: 1rem; font-size: 1.3rem;&quot; class=&quot;title&quot;&gt;&lt;br&gt;&lt;/p&gt;&lt;p style=&quot;box-sizing: border-box; margin-top: 0px; margin-bottom: 1rem; font-size: 1.3rem;&quot; class=&quot;title&quot;&gt;&lt;br&gt;&lt;/p&gt;&lt;p style=&quot;box-sizing: border-box; margin-top: 0px; margin-bottom: 1rem; font-size: 1.3rem;&quot; class=&quot;title&quot;&gt;&lt;span style=&quot;font-size: 1.3rem;&quot;&gt;&lt;br&gt;&lt;/span&gt;&lt;/p&gt;&lt;p style=&quot;box-sizing: border-box; margin-top: 0px; margin-bottom: 1rem; font-size: 1.3rem;&quot; class=&quot;title&quot;&gt;&lt;span style=&quot;font-size: 1.3rem;&quot;&gt;Score: N/A&lt;/span&gt;&lt;br&gt;&lt;/p&gt;&lt;/label&gt;&lt;/div&gt;" style="whiteSpace=wrap;html=1;aspect=fixed;strokeColor=none;" vertex="1" parent="zW8ntHKJu_nd5cqJYW5A-93">
          <mxGeometry x="330" y="610" width="350" height="350" as="geometry" />
        </mxCell>
        <mxCell id="zW8ntHKJu_nd5cqJYW5A-117" value="&lt;p style=&quot;box-sizing: border-box; margin-top: 0px; margin-bottom: 1rem; font-size: 1.7rem; border-bottom: 1px solid rgb(58, 167, 201); padding-bottom: 0.5rem; color: rgb(33, 37, 41); font-family: system-ui, -apple-system, &amp;quot;Segoe UI&amp;quot;, Roboto, &amp;quot;Helvetica Neue&amp;quot;, &amp;quot;Noto Sans&amp;quot;, &amp;quot;Liberation Sans&amp;quot;, Arial, sans-serif, &amp;quot;Apple Color Emoji&amp;quot;, &amp;quot;Segoe UI Emoji&amp;quot;, &amp;quot;Segoe UI Symbol&amp;quot;, &amp;quot;Noto Color Emoji&amp;quot;; text-align: start; background-color: rgb(255, 255, 255);&quot; class=&quot;assignment&quot;&gt;Assignment 3&lt;/p&gt;&lt;div style=&quot;box-sizing: border-box; color: rgb(33, 37, 41); font-family: system-ui, -apple-system, &amp;quot;Segoe UI&amp;quot;, Roboto, &amp;quot;Helvetica Neue&amp;quot;, &amp;quot;Noto Sans&amp;quot;, &amp;quot;Liberation Sans&amp;quot;, Arial, sans-serif, &amp;quot;Apple Color Emoji&amp;quot;, &amp;quot;Segoe UI Emoji&amp;quot;, &amp;quot;Segoe UI Symbol&amp;quot;, &amp;quot;Noto Color Emoji&amp;quot;; text-align: start; background-color: rgb(255, 255, 255); font-size: 10px;&quot;&gt;&lt;label style=&quot;box-sizing: border-box; display: inline-block; margin-bottom: 0.5rem;&quot; class=&quot;form-label&quot;&gt;&lt;p style=&quot;box-sizing: border-box; margin-top: 0px; margin-bottom: 1rem; font-size: 1.3rem;&quot; class=&quot;title&quot;&gt;The current Prime Minister in Canada is (include the starting year for the PM)&lt;br&gt;&lt;/p&gt;&lt;p style=&quot;box-sizing: border-box; margin-top: 0px; margin-bottom: 1rem; font-size: 1.3rem;&quot; class=&quot;title&quot;&gt;&lt;br&gt;&lt;/p&gt;&lt;p style=&quot;box-sizing: border-box; margin-top: 0px; margin-bottom: 1rem; font-size: 1.3rem;&quot; class=&quot;title&quot;&gt;&lt;br&gt;&lt;/p&gt;&lt;p style=&quot;box-sizing: border-box; margin-top: 0px; margin-bottom: 1rem; font-style: italic;&quot;&gt;*** ONLY accept the following particular format ***&lt;/p&gt;&lt;p style=&quot;box-sizing: border-box; margin-top: 0px; margin-bottom: 1rem; font-style: italic;&quot;&gt;[alphabetical letters][1 blank space][alphabetical letters][1 blank space][numbers]&lt;/p&gt;&lt;p style=&quot;box-sizing: border-box; margin-top: 0px; margin-bottom: 1rem; font-size: 1.3rem;&quot; class=&quot;title&quot;&gt;Score: N/A&lt;br&gt;&lt;/p&gt;&lt;/label&gt;&lt;/div&gt;" style="whiteSpace=wrap;html=1;aspect=fixed;strokeColor=none;" vertex="1" parent="zW8ntHKJu_nd5cqJYW5A-93">
          <mxGeometry x="320" y="930" width="350" height="350" as="geometry" />
        </mxCell>
        <mxCell id="zW8ntHKJu_nd5cqJYW5A-118" value="Submit Now" style="strokeWidth=1;shadow=0;dashed=0;align=center;html=1;shape=mxgraph.mockup.buttons.button;mainText=;buttonStyle=round;fontSize=17;fontStyle=0;fillColor=none;whiteSpace=wrap;rounded=0;labelBackgroundColor=none;strokeColor=default;" vertex="1" parent="zW8ntHKJu_nd5cqJYW5A-93">
          <mxGeometry x="580" y="880" width="100" height="30" as="geometry" />
        </mxCell>
        <mxCell id="zW8ntHKJu_nd5cqJYW5A-119" value="Submit Now" style="strokeWidth=1;shadow=0;dashed=0;align=center;html=1;shape=mxgraph.mockup.buttons.button;mainText=;buttonStyle=round;fontSize=17;fontStyle=0;fillColor=none;whiteSpace=wrap;rounded=0;labelBackgroundColor=none;strokeColor=default;" vertex="1" parent="zW8ntHKJu_nd5cqJYW5A-93">
          <mxGeometry x="580" y="1230" width="100" height="30" as="geometry" />
        </mxCell>
        <mxCell id="zW8ntHKJu_nd5cqJYW5A-121" value="" style="whiteSpace=wrap;html=1;aspect=fixed;" vertex="1" parent="zW8ntHKJu_nd5cqJYW5A-93">
          <mxGeometry x="335" y="750" width="10" height="10" as="geometry" />
        </mxCell>
        <mxCell id="zW8ntHKJu_nd5cqJYW5A-122" value="" style="whiteSpace=wrap;html=1;aspect=fixed;" vertex="1" parent="zW8ntHKJu_nd5cqJYW5A-93">
          <mxGeometry x="335" y="770" width="10" height="10" as="geometry" />
        </mxCell>
        <mxCell id="zW8ntHKJu_nd5cqJYW5A-123" value="" style="whiteSpace=wrap;html=1;aspect=fixed;" vertex="1" parent="zW8ntHKJu_nd5cqJYW5A-93">
          <mxGeometry x="335" y="790" width="10" height="10" as="geometry" />
        </mxCell>
        <mxCell id="zW8ntHKJu_nd5cqJYW5A-124" value="" style="whiteSpace=wrap;html=1;aspect=fixed;" vertex="1" parent="zW8ntHKJu_nd5cqJYW5A-93">
          <mxGeometry x="335" y="810" width="10" height="10" as="geometry" />
        </mxCell>
        <mxCell id="zW8ntHKJu_nd5cqJYW5A-125" value="" style="whiteSpace=wrap;html=1;aspect=fixed;" vertex="1" parent="zW8ntHKJu_nd5cqJYW5A-93">
          <mxGeometry x="335" y="830" width="10" height="10" as="geometry" />
        </mxCell>
        <mxCell id="zW8ntHKJu_nd5cqJYW5A-126" value="&lt;font style=&quot;font-size: 10px;&quot;&gt;Technical illustration&lt;/font&gt;" style="rounded=0;whiteSpace=wrap;html=1;strokeColor=none;" vertex="1" parent="zW8ntHKJu_nd5cqJYW5A-93">
          <mxGeometry x="350" y="747.5" width="100" height="15" as="geometry" />
        </mxCell>
        <mxCell id="zW8ntHKJu_nd5cqJYW5A-127" value="&lt;font style=&quot;font-size: 10px;&quot;&gt;Instructional design&lt;/font&gt;" style="rounded=0;whiteSpace=wrap;html=1;strokeColor=none;" vertex="1" parent="zW8ntHKJu_nd5cqJYW5A-93">
          <mxGeometry x="350" y="767.5" width="100" height="15" as="geometry" />
        </mxCell>
        <mxCell id="zW8ntHKJu_nd5cqJYW5A-128" value="&lt;font style=&quot;font-size: 10px;&quot;&gt;Financial advice&lt;/font&gt;" style="rounded=0;whiteSpace=wrap;html=1;strokeColor=none;" vertex="1" parent="zW8ntHKJu_nd5cqJYW5A-93">
          <mxGeometry x="350" y="787.5" width="90" height="15" as="geometry" />
        </mxCell>
        <mxCell id="zW8ntHKJu_nd5cqJYW5A-129" value="&lt;font style=&quot;font-size: 10px;&quot;&gt;Admission and Registration&lt;/font&gt;" style="rounded=0;whiteSpace=wrap;html=1;strokeColor=none;" vertex="1" parent="zW8ntHKJu_nd5cqJYW5A-93">
          <mxGeometry x="350" y="807.5" width="130" height="15" as="geometry" />
        </mxCell>
        <mxCell id="zW8ntHKJu_nd5cqJYW5A-130" value="&lt;font style=&quot;font-size: 10px;&quot;&gt;Audio-visual loans&lt;/font&gt;" style="rounded=0;whiteSpace=wrap;html=1;strokeColor=none;" vertex="1" parent="zW8ntHKJu_nd5cqJYW5A-93">
          <mxGeometry x="350" y="827.5" width="100" height="15" as="geometry" />
        </mxCell>
        <mxCell id="zW8ntHKJu_nd5cqJYW5A-131" value="Type your answer here" style="rounded=0;whiteSpace=wrap;html=1;align=left;" vertex="1" parent="zW8ntHKJu_nd5cqJYW5A-93">
          <mxGeometry x="320" y="1090" width="290" height="30" as="geometry" />
        </mxCell>
        <mxCell id="zW8ntHKJu_nd5cqJYW5A-133" value="" style="endArrow=classic;html=1;rounded=0;strokeWidth=25;" edge="1" parent="1">
          <mxGeometry relative="1" as="geometry">
            <mxPoint x="1100" y="450" as="sourcePoint" />
            <mxPoint x="1710" y="450" as="targetPoint" />
          </mxGeometry>
        </mxCell>
        <mxCell id="zW8ntHKJu_nd5cqJYW5A-134" value="&lt;font size=&quot;1&quot; style=&quot;&quot;&gt;&lt;b style=&quot;font-size: 37px;&quot;&gt;After the instructor logs in&lt;/b&gt;&lt;/font&gt;" style="edgeLabel;resizable=0;html=1;align=center;verticalAlign=middle;" connectable="0" vertex="1" parent="zW8ntHKJu_nd5cqJYW5A-133">
          <mxGeometry relative="1" as="geometry">
            <mxPoint x="-25" y="-50" as="offset" />
          </mxGeometry>
        </mxCell>
        <mxCell id="zW8ntHKJu_nd5cqJYW5A-135" value="" style="endArrow=classic;html=1;rounded=0;strokeWidth=25;" edge="1" parent="1">
          <mxGeometry relative="1" as="geometry">
            <mxPoint x="2810" y="425" as="sourcePoint" />
            <mxPoint x="3520" y="420" as="targetPoint" />
          </mxGeometry>
        </mxCell>
        <mxCell id="zW8ntHKJu_nd5cqJYW5A-136" value="&lt;font size=&quot;1&quot; style=&quot;&quot;&gt;&lt;b style=&quot;font-size: 37px;&quot;&gt;Mark a student&#39;s assignment&lt;/b&gt;&lt;/font&gt;" style="edgeLabel;resizable=0;html=1;align=center;verticalAlign=middle;" connectable="0" vertex="1" parent="zW8ntHKJu_nd5cqJYW5A-135">
          <mxGeometry relative="1" as="geometry">
            <mxPoint x="-35" y="-50" as="offset" />
          </mxGeometry>
        </mxCell>
        <mxCell id="zW8ntHKJu_nd5cqJYW5A-137" value="" style="endArrow=classic;html=1;rounded=0;strokeWidth=25;" edge="1" parent="1">
          <mxGeometry relative="1" as="geometry">
            <mxPoint x="2200" y="850" as="sourcePoint" />
            <mxPoint x="2200" y="1560" as="targetPoint" />
          </mxGeometry>
        </mxCell>
        <mxCell id="zW8ntHKJu_nd5cqJYW5A-138" value="&lt;font size=&quot;1&quot; style=&quot;&quot;&gt;&lt;b style=&quot;font-size: 41px;&quot;&gt;Add a new student&lt;br&gt;&lt;/b&gt;&lt;/font&gt;" style="edgeLabel;resizable=0;html=1;align=center;verticalAlign=middle;" connectable="0" vertex="1" parent="zW8ntHKJu_nd5cqJYW5A-137">
          <mxGeometry relative="1" as="geometry">
            <mxPoint x="220" y="-17" as="offset" />
          </mxGeometry>
        </mxCell>
        <mxCell id="zW8ntHKJu_nd5cqJYW5A-139" value="" style="endArrow=classic;html=1;rounded=0;strokeWidth=25;" edge="1" parent="1">
          <mxGeometry relative="1" as="geometry">
            <mxPoint x="510" y="850" as="sourcePoint" />
            <mxPoint x="510" y="1560" as="targetPoint" />
          </mxGeometry>
        </mxCell>
        <mxCell id="zW8ntHKJu_nd5cqJYW5A-140" value="&lt;font size=&quot;1&quot; style=&quot;&quot;&gt;&lt;b style=&quot;font-size: 41px;&quot;&gt;After a student logs in&lt;br&gt;&lt;/b&gt;&lt;/font&gt;" style="edgeLabel;resizable=0;html=1;align=center;verticalAlign=middle;" connectable="0" vertex="1" parent="zW8ntHKJu_nd5cqJYW5A-139">
          <mxGeometry relative="1" as="geometry">
            <mxPoint x="250" y="-17" as="offset" />
          </mxGeometry>
        </mxCell>
      </root>
    </mxGraphModel>
  </diagram>
</mxfile>
